<svg width="40" height="40" viewBox="0 0 40 40" fill="none" xmlns="http://www.w3.org/2000/svg">
<path d="M5.83325 33.5896V11.9229H12.4999V5.25623H27.4999V18.5896H34.1666V33.5896H22.4999V26.9229H17.4999V33.5896H5.83325ZM7.49992 31.9229H12.4999V26.9229H7.49992V31.9229ZM7.49992 25.2562H12.4999V20.2562H7.49992V25.2562ZM7.49992 18.5896H12.4999V13.5896H7.49992V18.5896ZM14.1666 25.2562H19.1666V20.2562H14.1666V25.2562ZM14.1666 18.5896H19.1666V13.5896H14.1666V18.5896ZM14.1666 11.9229H19.1666V6.92289H14.1666V11.9229ZM20.8333 25.2562H25.8333V20.2562H20.8333V25.2562ZM20.8333 18.5896H25.8333V13.5896H20.8333V18.5896ZM20.8333 11.9229H25.8333V6.92289H20.8333V11.9229ZM27.4999 31.9229H32.4999V26.9229H27.4999V31.9229ZM27.4999 25.2562H32.4999V20.2562H27.4999V25.2562Z" fill="#9B7548"/>
</svg>


