<svg width="40" height="40" viewBox="0 0 40 40" fill="none" xmlns="http://www.w3.org/2000/svg">
<path d="M20.0054 35C17.9313 35 15.9811 34.6064 14.155 33.8192C12.3292 33.0319 10.7408 31.9636 9.39 30.6142C8.03917 29.2647 6.96986 27.6778 6.18208 25.8533C5.39403 24.0292 5 22.0799 5 20.0054C5 17.9313 5.39361 15.9811 6.18083 14.155C6.96806 12.3292 8.03639 10.7408 9.38583 9.39C10.7353 8.03917 12.3222 6.96986 14.1467 6.18208C15.9708 5.39403 17.9201 5 19.9946 5C22.0688 5 24.0189 5.39361 25.845 6.18083C27.6708 6.96806 29.2592 8.03639 30.61 9.38583C31.9608 10.7353 33.0301 12.3222 33.8179 14.1467C34.606 15.9708 35 17.9201 35 19.9946C35 22.0688 34.6064 24.0189 33.8192 25.845C33.0319 27.6708 31.9636 29.2592 30.6142 30.61C29.2647 31.9608 27.6778 33.0301 25.8533 33.8179C24.0292 34.606 22.0799 35 20.0054 35ZM18.3333 33.25V30C17.4167 30 16.6319 29.6736 15.9792 29.0208C15.3264 28.3681 15 27.5833 15 26.6667V25L7 17C6.91667 17.5 6.84028 18 6.77083 18.5C6.70139 19 6.66667 19.5 6.66667 20C6.66667 23.3611 7.77083 26.3056 9.97917 28.8333C12.1875 31.3611 14.9722 32.8333 18.3333 33.25ZM29.8333 29C30.9722 27.75 31.8403 26.3542 32.4375 24.8125C33.0347 23.2708 33.3333 21.6626 33.3333 19.9879C33.3333 17.2526 32.5817 14.7546 31.0783 12.4937C29.5753 10.2329 27.5492 8.6025 25 7.6025V8.33333C25 9.25 24.6736 10.0347 24.0208 10.6875C23.3681 11.3403 22.5833 11.6667 21.6667 11.6667H18.3333V15C18.3333 15.4722 18.1736 15.8681 17.8542 16.1875C17.5347 16.5069 17.1389 16.6667 16.6667 16.6667H13.3333V20H23.3333C23.8056 20 24.2014 20.1597 24.5208 20.4792C24.8403 20.7986 25 21.1944 25 21.6667V26.6667H26.6667C27.3889 26.6667 28.0417 26.8819 28.625 27.3125C29.2083 27.7431 29.6111 28.3056 29.8333 29Z" fill="#9B7548"/>
</svg>
