<svg width="40" height="40" viewBox="0 0 40 40" fill="none" xmlns="http://www.w3.org/2000/svg">
<path d="M4.32715 31.0258V28.282C4.32715 27.5084 4.52743 26.8433 4.92798 26.2866C5.32854 25.7302 5.86687 25.2855 6.54298 24.9525C7.98881 24.2641 9.42423 23.7154 10.8492 23.3062C12.2745 22.897 13.9894 22.6925 15.9938 22.6925C17.998 22.6925 19.7127 22.897 21.138 23.3062C22.5633 23.7154 23.9987 24.2641 25.4442 24.9525C26.1203 25.2855 26.6587 25.7302 27.0592 26.2866C27.4601 26.8433 27.6605 27.5084 27.6605 28.282V31.0258H4.32715ZM30.9938 31.0258V28.205C30.9938 27.2391 30.7983 26.3275 30.4071 25.47C30.0163 24.6125 29.4619 23.8768 28.7438 23.2629C29.5621 23.4295 30.3506 23.6608 31.1092 23.9566C31.8676 24.2527 32.6176 24.5855 33.3592 24.955C34.0815 25.3183 34.6477 25.7831 35.058 26.3495C35.468 26.9162 35.673 27.5347 35.673 28.205V31.0258H30.9938ZM15.9938 18.9741C14.6188 18.9741 13.4417 18.4845 12.4626 17.5054C11.4834 16.5262 10.9938 15.3491 10.9938 13.9741C10.9938 12.5991 11.4834 11.422 12.4626 10.4429C13.4417 9.4637 14.6188 8.97412 15.9938 8.97412C17.3688 8.97412 18.5459 9.4637 19.5251 10.4429C20.5042 11.422 20.9938 12.5991 20.9938 13.9741C20.9938 15.3491 20.5042 16.5262 19.5251 17.5054C18.5459 18.4845 17.3688 18.9741 15.9938 18.9741ZM28.1092 13.9741C28.1092 15.3491 27.6196 16.5262 26.6405 17.5054C25.6613 18.4845 24.4842 18.9741 23.1092 18.9741C23.0387 18.9741 22.9488 18.9662 22.8396 18.9504C22.7308 18.9343 22.641 18.9166 22.5705 18.8975C23.1352 18.2058 23.5691 17.4386 23.8721 16.5958C24.1755 15.753 24.3271 14.8779 24.3271 13.9704C24.3271 13.0629 24.1684 12.1956 23.8509 11.3687C23.5337 10.5418 23.1069 9.76926 22.5705 9.0512C22.6602 9.01926 22.7499 8.99843 22.8396 8.9887C22.9294 8.97898 23.0192 8.97412 23.1092 8.97412C24.4842 8.97412 25.6613 9.4637 26.6405 10.4429C27.6196 11.422 28.1092 12.5991 28.1092 13.9741ZM5.99382 29.3591H25.9938V28.282C25.9938 27.8909 25.896 27.549 25.7005 27.2562C25.5049 26.9637 25.154 26.6838 24.6476 26.4166C23.404 25.7522 22.093 25.2431 20.7146 24.8895C19.3366 24.5359 17.763 24.3591 15.9938 24.3591C14.2244 24.3591 12.6506 24.5359 11.2726 24.8895C9.89423 25.2431 8.58326 25.7522 7.33965 26.4166C6.83326 26.6838 6.48229 26.9637 6.28673 27.2562C6.09145 27.549 5.99382 27.8909 5.99382 28.282V29.3591ZM15.9938 17.3075C16.9105 17.3075 17.6952 16.9811 18.348 16.3283C19.0008 15.6755 19.3271 14.8908 19.3271 13.9741C19.3271 13.0575 19.0008 12.2727 18.348 11.62C17.6952 10.9672 16.9105 10.6408 15.9938 10.6408C15.0771 10.6408 14.2924 10.9672 13.6396 11.62C12.9869 12.2727 12.6605 13.0575 12.6605 13.9741C12.6605 14.8908 12.9869 15.6755 13.6396 16.3283C14.2924 16.9811 15.0771 17.3075 15.9938 17.3075Z" fill="#9B7548"/>
</svg>

