<svg width="40" height="40" viewBox="0 0 40 40" fill="none" xmlns="http://www.w3.org/2000/svg">
<path d="M20.0058 19.5513C20.7477 19.5513 21.3809 19.2871 21.9054 18.7587C22.4301 18.2304 22.6924 17.5953 22.6924 16.8533C22.6924 16.1114 22.4281 15.4781 21.8995 14.9533C21.3712 14.4289 20.736 14.1667 19.9941 14.1667C19.2522 14.1667 18.619 14.4308 18.0945 14.9592C17.5698 15.4875 17.3074 16.1226 17.3074 16.8646C17.3074 17.6065 17.5717 18.2399 18.1004 18.7646C18.6287 19.289 19.2638 19.5513 20.0058 19.5513ZM19.9999 35.0321C16.0833 31.5685 13.133 28.3382 11.1491 25.3413C9.16493 22.3446 8.17285 19.6176 8.17285 17.1604C8.17285 13.6346 9.32091 10.7264 11.617 8.43583C13.9129 6.14528 16.7072 5 19.9999 5C23.2927 5 26.087 6.14528 28.3829 8.43583C30.679 10.7264 31.827 13.6346 31.827 17.1604C31.827 19.6176 30.8349 22.3446 28.8508 25.3413C26.8669 28.3382 23.9166 31.5685 19.9999 35.0321Z" fill="#9B7548"/>
</svg>

