<svg width="450" height="319" viewBox="0 0 450 319" fill="none" xmlns="http://www.w3.org/2000/svg">
<g clip-path="url(#clip0_7664_149616)">
<path d="M447.859 104.133C441.651 125.714 423.526 140.82 404.62 153.653C401.98 155.446 399.339 157.197 396.697 158.906C396.679 158.914 396.661 158.931 396.643 158.939C396.516 159.021 396.388 159.103 396.27 159.185C395.725 159.537 395.179 159.89 394.639 160.238L394.936 160.371C394.936 160.371 395.227 160.527 394.908 160.396C394.813 160.357 394.714 160.321 394.619 160.281C383.636 155.841 372.457 151.075 364.04 142.758C355.308 134.122 350.205 120.577 354.933 109.232C355.555 107.746 356.34 106.334 357.274 105.022C357.657 104.472 358.07 103.946 358.5 103.429C361.108 100.239 364.517 97.803 368.376 96.3709C372.235 94.9389 376.405 94.5628 380.457 95.2813C384.51 95.9998 388.298 97.7869 391.432 100.459C394.567 103.131 396.935 106.591 398.292 110.484C399.681 97.5237 389.017 86.6672 378.754 78.6567C368.487 70.6502 356.821 61.9311 354.836 49.0423C353.727 41.8712 356.216 34.9217 360.749 29.3429C360.889 29.1734 361.029 29.0041 361.174 28.8392C366.691 22.3415 374.452 18.1691 382.906 17.1553C398.649 15.5156 413.941 23.8668 425.379 34.8365C443.787 52.486 454.916 79.5956 447.859 104.133Z" fill="#E7DACB"/>
<path d="M418.267 75.9052C421.288 80.6162 423.608 85.7436 425.153 91.1255C426.459 95.9359 427.041 100.915 426.878 105.898C426.595 116.139 423.45 126.147 418.503 135.061C414.675 141.82 410.01 148.067 404.619 153.653C401.979 155.445 399.339 157.196 396.697 158.906C396.679 158.914 396.661 158.931 396.643 158.939C396.516 159.021 396.388 159.103 396.27 159.185C395.725 159.537 395.179 159.889 394.639 160.238C394.639 160.238 395.227 160.527 394.908 160.396C394.813 160.356 394.714 160.321 394.619 160.281C395.603 152.192 394.639 143.985 391.807 136.348C388.974 128.71 384.356 121.864 378.34 116.383C372.309 110.985 365.091 107.092 357.273 105.022C357.657 104.472 358.07 103.946 358.5 103.429C361.519 104.277 364.458 105.392 367.281 106.759C377.374 111.616 385.638 119.6 390.85 129.53C395.527 138.547 397.54 148.714 396.652 158.838C397.103 158.428 397.555 158.009 397.993 157.594C406.34 149.796 413.753 140.845 418.77 130.515C423.123 121.767 425.262 112.08 424.999 102.309C424.59 91.6535 420.354 81.7841 414.22 73.1923C407.65 63.997 399.413 55.8617 390.616 48.8139C381.607 41.5823 371.748 35.4827 361.26 30.6511C361.024 30.5405 360.839 30.343 360.743 30.0994C360.648 29.8559 360.65 29.585 360.748 29.3427C360.818 29.1253 360.971 28.9443 361.173 28.839C361.277 28.7941 361.39 28.7732 361.504 28.778C361.617 28.7828 361.728 28.8132 361.827 28.8669C363.122 29.4643 364.408 30.0699 365.684 30.7017C376.309 35.9644 386.24 42.5295 395.249 50.2461C403.952 57.6815 412.145 66.1765 418.267 75.9052Z" fill="white"/>
<path d="M353.708 19.8828H0.707031V21.3007H353.708V19.8828Z" fill="#9B7548"/>
<path d="M37.4945 14.892C39.8387 14.892 41.739 12.9876 41.739 10.6384C41.739 8.28917 39.8387 6.38477 37.4945 6.38477C35.1503 6.38477 33.25 8.28917 33.25 10.6384C33.25 12.9876 35.1503 14.892 37.4945 14.892Z" fill="#8B6941"/>
<path d="M12.7328 14.892C15.077 14.892 16.9773 12.9876 16.9773 10.6384C16.9773 8.28917 15.077 6.38477 12.7328 6.38477C10.3886 6.38477 8.48828 8.28917 8.48828 10.6384C8.48828 12.9876 10.3886 14.892 12.7328 14.892Z" fill="#BE9C74"/>
<path d="M24.9359 14.892C27.2801 14.892 29.1804 12.9876 29.1804 10.6384C29.1804 8.28917 27.2801 6.38477 24.9359 6.38477C22.5917 6.38477 20.6914 8.28917 20.6914 10.6384C20.6914 12.9876 22.5917 14.892 24.9359 14.892Z" fill="#E7DACB"/>
<path d="M277.257 102.167H76.9067C76.3105 102.167 75.72 102.049 75.1692 101.821C74.6183 101.592 74.1177 101.257 73.6961 100.834C73.2745 100.412 72.94 99.9101 72.7118 99.358C72.4837 98.8059 72.3662 98.2142 72.3662 97.6167C72.3662 97.0191 72.4837 96.4274 72.7118 95.8754C72.94 95.3233 73.2745 94.8217 73.6961 94.3991C74.1177 93.9766 74.6183 93.6414 75.1692 93.4128C75.72 93.1841 76.3105 93.0664 76.9067 93.0664H277.257C277.854 93.0664 278.444 93.1841 278.995 93.4128C279.546 93.6414 280.046 93.9766 280.468 94.3991C280.889 94.8217 281.224 95.3233 281.452 95.8754C281.68 96.4274 281.798 97.0191 281.798 97.6167C281.798 98.2142 281.68 98.8059 281.452 99.358C281.224 99.9101 280.889 100.412 280.468 100.834C280.046 101.257 279.546 101.592 278.995 101.821C278.444 102.049 277.854 102.167 277.257 102.167Z" fill="#CEB597"/>
<path d="M277.257 151.081H76.9067C76.3105 151.081 75.72 150.963 75.1692 150.735C74.6183 150.506 74.1177 150.171 73.6961 149.748C73.2745 149.326 72.94 148.824 72.7118 148.272C72.4837 147.72 72.3662 147.128 72.3662 146.531C72.3662 145.933 72.4837 145.341 72.7118 144.789C72.94 144.237 73.2745 143.736 73.6961 143.313C74.1177 142.891 74.6183 142.556 75.1692 142.327C75.72 142.098 76.3105 141.98 76.9067 141.98H277.257C277.854 141.98 278.444 142.098 278.995 142.327C279.546 142.556 280.046 142.891 280.468 143.313C280.889 143.736 281.224 144.237 281.452 144.789C281.68 145.341 281.798 145.933 281.798 146.531C281.798 147.128 281.68 147.72 281.452 148.272C281.224 148.824 280.889 149.326 280.468 149.748C280.046 150.171 279.546 150.506 278.995 150.735C278.444 150.963 277.854 151.081 277.257 151.081Z" fill="#F4EEE7"/>
<path d="M277.257 169.853H76.9067C75.7025 169.853 74.5476 169.373 73.6961 168.52C72.8446 167.666 72.3662 166.509 72.3662 165.302C72.3662 164.095 72.8446 162.938 73.6961 162.085C74.5476 161.231 75.7025 160.752 76.9067 160.752H277.257C278.461 160.752 279.616 161.231 280.468 162.085C281.319 162.938 281.798 164.095 281.798 165.302C281.798 166.509 281.319 167.666 280.468 168.52C279.616 169.373 278.461 169.853 277.257 169.853Z" fill="#F4EEE7"/>
<path d="M244.622 82.8271H109.542C108.337 82.8271 107.182 82.3477 106.331 81.4944C105.479 80.641 105.001 79.4836 105.001 78.2768C105.001 77.07 105.479 75.9127 106.331 75.0593C107.182 74.206 108.337 73.7266 109.542 73.7266H244.622C245.826 73.7266 246.981 74.206 247.833 75.0593C248.684 75.9127 249.163 77.07 249.163 78.2768C249.163 79.4836 248.684 80.641 247.833 81.4944C246.981 82.3477 245.826 82.8271 244.622 82.8271Z" fill="#CEB597"/>
<path d="M147.539 132.311H77.1612C76.5645 132.312 75.9735 132.195 75.422 131.967C74.8705 131.738 74.3693 131.403 73.9471 130.981C73.5249 130.558 73.1899 130.056 72.9614 129.504C72.7329 128.951 72.6152 128.359 72.6152 127.761C72.6152 127.163 72.7329 126.571 72.9614 126.019C73.1899 125.466 73.5249 124.964 73.9471 124.542C74.3693 124.119 74.8705 123.784 75.422 123.556C75.9735 123.327 76.5645 123.21 77.1612 123.211H147.539C148.744 123.211 149.898 123.69 150.75 124.544C151.601 125.397 152.08 126.554 152.08 127.761C152.08 128.968 151.601 130.125 150.75 130.979C149.898 131.832 148.744 132.311 147.539 132.311Z" fill="#F4EEE7"/>
<path d="M277.512 132.311H207.134C206.537 132.312 205.946 132.195 205.395 131.967C204.843 131.738 204.342 131.403 203.92 130.981C203.498 130.558 203.163 130.056 202.934 129.504C202.706 128.951 202.588 128.359 202.588 127.761C202.588 127.163 202.706 126.571 202.934 126.019C203.163 125.466 203.498 124.964 203.92 124.542C204.342 124.119 204.843 123.784 205.395 123.556C205.946 123.327 206.537 123.21 207.134 123.211H277.512C278.109 123.21 278.7 123.327 279.251 123.556C279.803 123.784 280.304 124.119 280.726 124.542C281.148 124.964 281.483 125.466 281.712 126.019C281.94 126.571 282.058 127.163 282.058 127.761C282.058 128.359 281.94 128.951 281.712 129.504C281.483 130.056 281.148 130.558 280.726 130.981C280.304 131.403 279.803 131.738 279.251 131.967C278.7 132.195 278.109 132.312 277.512 132.311Z" fill="#F4EEE7"/>
<path d="M349.462 0H4.94701C3.63448 0.00200107 2.37636 0.525854 1.44886 1.45655C0.521366 2.38725 0.000288175 3.64874 0 4.96409V238.916C0.00165354 240.23 0.523382 241.49 1.45077 242.419C2.37816 243.349 3.63549 243.872 4.94701 243.873H262.572C262.507 243.404 262.455 242.927 262.403 242.458H4.94701C4.00986 242.457 3.11133 242.083 2.44865 241.419C1.78598 240.755 1.41329 239.855 1.41243 238.916V4.96409C1.41304 4.02425 1.78543 3.12298 2.44798 2.45781C3.11052 1.79264 4.00918 1.41783 4.94701 1.41552H349.462C350.401 1.4165 351.301 1.79068 351.965 2.45595C352.629 3.12123 353.002 4.02326 353.003 4.96409V148.349C353.472 148.381 353.947 148.42 354.416 148.466V4.96409C354.415 3.6477 353.893 2.38541 352.965 1.4546C352.036 0.523792 350.776 0.000604963 349.462 0Z" fill="#9B7548"/>
<path d="M262.572 243.873C262.507 243.403 262.455 242.927 262.403 242.457C262.39 242.385 262.383 242.32 262.377 242.248C262.188 240.533 262.051 238.8 261.967 237.049C261.609 238.556 261.286 240.07 260.997 241.59C261.016 241.811 261.036 242.027 261.062 242.248C261.068 242.32 261.075 242.385 261.088 242.457C261.14 242.927 261.192 243.403 261.257 243.873C261.439 245.327 261.661 246.762 261.921 248.191C261.928 248.132 261.934 248.08 261.941 248.021C262.123 246.645 262.331 245.275 262.578 243.905C262.573 243.895 262.571 243.884 262.572 243.873ZM354.416 147.154C353.947 147.109 353.472 147.07 353.003 147.037C352.932 147.03 352.867 147.03 352.795 147.024C350.712 146.867 348.603 146.789 346.481 146.789C334.467 146.793 322.587 149.321 311.608 154.21C300.629 159.098 290.795 166.24 282.74 175.172C274.685 184.105 268.588 194.631 264.843 206.071C261.098 217.511 259.788 229.611 260.997 241.59C261.016 241.811 261.036 242.027 261.062 242.248C261.068 242.32 261.075 242.385 261.088 242.457C261.14 242.927 261.192 243.403 261.257 243.873C261.439 245.327 261.661 246.762 261.921 248.191C264.507 262.354 270.581 275.645 279.592 286.86C288.602 298.075 300.264 306.857 313.519 312.411C314.873 312.972 316.24 313.507 317.626 313.996C318.538 314.329 319.449 314.635 320.373 314.929C321.037 315.144 321.708 315.346 322.378 315.542C323.328 315.823 324.292 316.09 325.262 316.338C337.159 319.397 349.574 319.851 361.662 317.669C373.75 315.488 385.228 310.722 395.313 303.696H395.319C406.756 295.783 416.105 285.206 422.564 272.873C429.023 260.541 432.399 246.822 432.402 232.894C432.402 188.093 398.086 151.179 354.416 147.154ZM394.753 302.502C390.776 305.285 386.566 307.719 382.171 309.776C379.013 311.257 375.765 312.538 372.446 313.611C357.472 318.44 341.452 318.998 326.179 315.222C325.034 314.942 323.897 314.635 322.769 314.303C321.656 313.977 320.553 313.631 319.462 313.266C318.57 312.959 317.678 312.646 316.793 312.313C315.869 311.961 314.958 311.596 314.046 311.217C300.34 305.493 288.372 296.263 279.34 284.451C270.308 272.639 264.529 258.658 262.578 243.905C262.573 243.895 262.571 243.884 262.572 243.873C262.507 243.403 262.455 242.927 262.403 242.457C262.39 242.385 262.383 242.32 262.377 242.248C262.188 240.533 262.051 238.8 261.967 237.049C261.895 235.673 261.86 234.288 261.862 232.894C261.887 210.411 270.81 188.856 286.674 172.958C302.538 157.06 324.046 148.118 346.481 148.094C348.603 148.094 350.712 148.172 352.795 148.329C352.867 148.335 352.932 148.342 353.003 148.348C353.472 148.381 353.947 148.42 354.416 148.465C397.37 152.484 431.1 188.811 431.1 232.894C431.098 246.575 427.791 260.053 421.462 272.174C415.132 284.296 405.968 294.702 394.753 302.502ZM316.793 312.313C315.869 311.961 314.958 311.596 314.046 311.217C300.34 305.493 288.372 296.263 279.34 284.451C270.308 272.639 264.529 258.658 262.578 243.905C262.331 245.275 262.123 246.645 261.941 248.021C261.934 248.08 261.928 248.132 261.921 248.191C264.507 262.354 270.581 275.645 279.592 286.86C288.602 298.075 300.264 306.857 313.519 312.411C314.873 312.972 316.24 313.507 317.626 313.996C317.34 313.442 317.06 312.881 316.793 312.313ZM352.795 147.024C350.712 146.867 348.603 146.789 346.481 146.789C334.467 146.793 322.587 149.321 311.608 154.21C300.629 159.098 290.795 166.24 282.74 175.172C274.685 184.105 268.588 194.631 264.843 206.071C261.098 217.511 259.788 229.611 260.997 241.59C261.016 241.811 261.036 242.027 261.062 242.248C261.068 242.32 261.075 242.385 261.088 242.457H262.403C262.39 242.385 262.383 242.32 262.377 242.248C262.188 240.533 262.051 238.8 261.967 237.049C261.895 235.673 261.86 234.288 261.862 232.894C261.887 210.411 270.81 188.856 286.674 172.958C302.538 157.06 324.046 148.118 346.481 148.094C348.603 148.094 350.712 148.172 352.795 148.329C352.867 148.335 352.932 148.342 353.003 148.348L353.003 147.037C352.932 147.03 352.867 147.03 352.795 147.024Z" fill="#9B7548"/>
<g clip-path="url(#clip1_7664_149616)">
<path d="M346.361 146.756C394.237 146.756 433.048 185.66 433.048 233.651C433.048 281.641 394.237 320.545 346.361 320.545C298.486 320.545 259.675 281.641 259.675 233.651C259.675 185.66 298.486 146.756 346.361 146.756Z" fill="#F4EEE7"/>
<mask id="mask0_7664_149616" style="mask-type:luminance" maskUnits="userSpaceOnUse" x="259" y="146" width="175" height="175">
<path d="M346.361 320.545C394.237 320.545 433.048 281.641 433.048 233.651C433.048 185.66 394.237 146.756 346.361 146.756C298.486 146.756 259.675 185.66 259.675 233.651C259.675 281.641 298.486 320.545 346.361 320.545Z" fill="white"/>
</mask>
<g mask="url(#mask0_7664_149616)">
<path d="M351.471 216.926C359.744 216.926 366.451 210.202 366.451 201.909C366.451 193.616 359.744 186.893 351.471 186.893C343.197 186.893 336.49 193.616 336.49 201.909C336.49 210.202 343.197 216.926 351.471 216.926Z" fill="#F3BDA2"/>
<path d="M338.532 205.32C338.532 205.32 337.851 226.48 334.446 229.21C331.042 231.94 346.703 243.544 346.703 243.544L356.916 227.162V212.146L338.532 205.32Z" fill="#F3BDA2"/>
<path d="M345.341 233.988L337.074 221.475L332.404 227.845L325.595 246.956L331.043 321.356L363.047 322.038L367.133 236.719L356.92 224.433L345.341 233.988Z" fill="#F2F2F2"/>
<path d="M380.069 238.767L385.517 238.084C385.517 238.084 386.879 238.767 387.56 243.544C388.242 248.322 396.41 290.642 396.41 290.642L385.514 342.514L373.258 326.133L380.751 297.468L373.26 268.8L380.069 238.767Z" fill="#090814"/>
<path d="M310.615 238.084H306.529L296.314 293.371L305.847 336.373L315.38 320.674L312.657 303.61L314.015 288.593L318.782 279.719L310.615 238.084Z" fill="#090814"/>
<path d="M342.619 201.908L345.343 201.226C345.343 201.226 347.386 189.619 352.152 190.988C356.919 192.358 369.176 193.719 369.176 188.258C369.176 182.797 357.596 178.021 350.791 178.702C343.985 179.383 332.406 181.432 333.086 191.67C333.767 201.907 338.161 211.868 338.161 211.868L338.518 205.798L342.619 201.908Z" fill="#090814"/>
<path d="M384.837 238.084L363.047 229.21L357.94 225.456L342.618 293.371L332.405 262.656L335.469 223.408L307.212 238.084L316.745 284.498L318.106 302.245L314.02 316.579C314.02 316.579 299.721 326.816 304.487 337.739C309.254 348.661 314.7 349.345 314.7 349.345C314.7 349.345 337.852 327.503 339.216 322.043C340.581 316.583 342.621 307.026 342.621 307.026C342.621 307.026 354.2 350.711 367.814 350.028C381.428 349.345 381.433 335.011 381.433 335.011L378.029 319.995L372.581 304.296L375.305 278.36L384.837 238.084Z" fill="#090814"/>
</g>
</g>
<path d="M416.321 168.83C442.711 169.282 442.707 208.622 416.32 209.069C389.93 208.618 389.934 169.278 416.321 168.83Z" fill="#C39E72"/>
<path d="M416.321 199.905C415.947 199.904 415.589 199.755 415.324 199.49C415.06 199.225 414.911 198.866 414.91 198.491V190.994C414.91 190.827 414.844 190.667 414.726 190.548C414.608 190.43 414.448 190.364 414.282 190.364H406.801C406.427 190.364 406.068 190.215 405.803 189.949C405.538 189.684 405.39 189.325 405.39 188.949C405.39 188.574 405.538 188.215 405.803 187.949C406.068 187.684 406.427 187.535 406.801 187.535H414.282C414.448 187.535 414.608 187.469 414.726 187.351C414.844 187.233 414.91 187.072 414.91 186.905V179.408C414.91 179.033 415.059 178.673 415.324 178.408C415.588 178.143 415.947 177.994 416.321 177.994C416.695 177.994 417.054 178.143 417.319 178.408C417.583 178.673 417.732 179.033 417.732 179.408V186.905C417.732 187.072 417.799 187.233 417.916 187.351C418.034 187.469 418.194 187.535 418.361 187.535H425.842C426.216 187.535 426.575 187.684 426.84 187.949C427.104 188.215 427.253 188.574 427.253 188.949C427.253 189.325 427.104 189.684 426.84 189.949C426.575 190.215 426.216 190.364 425.842 190.364H418.361C418.194 190.364 418.034 190.43 417.916 190.548C417.799 190.667 417.732 190.827 417.732 190.994V198.491C417.732 198.866 417.583 199.225 417.318 199.49C417.054 199.755 416.695 199.904 416.321 199.905Z" fill="white"/>
</g>
<defs>
<clipPath id="clip0_7664_149616">
<rect width="450" height="319" fill="white"/>
</clipPath>
<clipPath id="clip1_7664_149616">
<rect width="173.373" height="173.789" fill="white" transform="translate(259.675 146.756)"/>
</clipPath>
</defs>
</svg>
