<svg width="56" height="51" viewBox="0 0 56 51" fill="none" xmlns="http://www.w3.org/2000/svg">
<path d="M27.6872 45.5664C27.8538 45.5664 28.0205 45.5247 28.1872 45.4414C28.3538 45.3581 28.4788 45.2747 28.5622 45.1914L49.0622 24.6914C49.5622 24.1914 49.9267 23.6289 50.1559 23.0039C50.3851 22.3789 50.4997 21.7539 50.4997 21.1289C50.4997 20.4622 50.3851 19.8268 50.1559 19.2227C49.9267 18.6185 49.5622 18.0872 49.0622 17.6289L38.4372 7.00391C37.9788 6.50391 37.4476 6.13932 36.8434 5.91016C36.2392 5.68099 35.6038 5.56641 34.9372 5.56641C34.3122 5.56641 33.6872 5.68099 33.0622 5.91016C32.4372 6.13932 31.8747 6.50391 31.3747 7.00391L30.6872 7.69141L35.3122 12.3789C35.9372 12.9622 36.3955 13.6289 36.6872 14.3789C36.9788 15.1289 37.1247 15.9206 37.1247 16.7539C37.1247 18.5039 36.5309 19.9727 35.3434 21.1602C34.1559 22.3477 32.6872 22.9414 30.9372 22.9414C30.1038 22.9414 29.3017 22.7956 28.5309 22.5039C27.7601 22.2122 27.083 21.7747 26.4997 21.1914L21.8122 16.5664L10.8747 27.5039C10.7497 27.6289 10.6559 27.7643 10.5934 27.9102C10.5309 28.056 10.4997 28.2122 10.4997 28.3789C10.4997 28.7122 10.6247 29.0143 10.8747 29.2852C11.1247 29.556 11.4163 29.6914 11.7497 29.6914C11.9163 29.6914 12.083 29.6497 12.2497 29.5664C12.4163 29.4831 12.5413 29.3997 12.6247 29.3164L19.3747 22.5664C19.833 22.1081 20.4059 21.8685 21.0934 21.8477C21.7809 21.8268 22.3747 22.0664 22.8747 22.5664C23.333 23.0247 23.5622 23.6081 23.5622 24.3164C23.5622 25.0247 23.333 25.6081 22.8747 26.0664L16.1872 32.8164C16.0622 32.9414 15.9684 33.0768 15.9059 33.2227C15.8434 33.3685 15.8122 33.5247 15.8122 33.6914C15.8122 34.0247 15.9372 34.3164 16.1872 34.5664C16.4372 34.8164 16.7288 34.9414 17.0622 34.9414C17.2288 34.9414 17.3955 34.8997 17.5622 34.8164C17.7288 34.7331 17.8538 34.6497 17.9372 34.5664L24.6872 27.8789C25.1455 27.4206 25.7184 27.181 26.4059 27.1602C27.0934 27.1393 27.6872 27.3789 28.1872 27.8789C28.6455 28.3372 28.8747 28.9206 28.8747 29.6289C28.8747 30.3372 28.6455 30.9206 28.1872 31.3789L21.4997 38.1289C21.3747 38.2122 21.2809 38.3372 21.2184 38.5039C21.1559 38.6706 21.1247 38.8372 21.1247 39.0039C21.1247 39.3372 21.2497 39.6289 21.4997 39.8789C21.7497 40.1289 22.0413 40.2539 22.3747 40.2539C22.5413 40.2539 22.6976 40.2227 22.8434 40.1602C22.9892 40.0977 23.1247 40.0039 23.2497 39.8789L29.9997 33.1914C30.458 32.7331 31.0309 32.4935 31.7184 32.4727C32.4059 32.4518 32.9997 32.6914 33.4997 33.1914C33.958 33.6497 34.1872 34.2331 34.1872 34.9414C34.1872 35.6497 33.958 36.2331 33.4997 36.6914L26.7497 43.4414C26.6247 43.5664 26.5309 43.7018 26.4684 43.8477C26.4059 43.9935 26.3747 44.1497 26.3747 44.3164C26.3747 44.6497 26.5101 44.9414 26.7809 45.1914C27.0517 45.4414 27.3538 45.5664 27.6872 45.5664ZM27.6247 50.5664C26.083 50.5664 24.7184 50.056 23.5309 49.0352C22.3434 48.0143 21.6455 46.7331 21.4372 45.1914C20.0205 44.9831 18.833 44.3997 17.8747 43.4414C16.9163 42.4831 16.333 41.2956 16.1247 39.8789C14.708 39.6706 13.5309 39.0768 12.5934 38.0977C11.6559 37.1185 11.083 35.9414 10.8747 34.5664C9.29133 34.3581 7.99967 33.6706 6.99967 32.5039C5.99967 31.3372 5.49967 29.9622 5.49967 28.3789C5.49967 27.5456 5.65592 26.7435 5.96842 25.9727C6.28092 25.2018 6.72883 24.5247 7.31217 23.9414L18.2497 13.0039C19.208 12.0456 20.3851 11.5664 21.7809 11.5664C23.1767 11.5664 24.3538 12.0456 25.3122 13.0039L29.9997 17.6914C30.083 17.8164 30.208 17.9102 30.3747 17.9727C30.5413 18.0352 30.708 18.0664 30.8747 18.0664C31.2497 18.0664 31.5622 17.9518 31.8122 17.7227C32.0622 17.4935 32.1872 17.1914 32.1872 16.8164C32.1872 16.6497 32.1559 16.4831 32.0934 16.3164C32.0309 16.1497 31.9372 16.0247 31.8122 15.9414L22.8747 7.00391C22.4163 6.50391 21.8851 6.13932 21.2809 5.91016C20.6767 5.68099 20.0413 5.56641 19.3747 5.56641C18.7497 5.56641 18.1247 5.68099 17.4997 5.91016C16.8747 6.13932 16.3122 6.50391 15.8122 7.00391L6.99967 15.8789C6.41633 16.4622 5.99967 17.1497 5.74967 17.9414C5.49967 18.7331 5.43717 19.5247 5.56217 20.3164C5.68717 21.0247 5.54133 21.6497 5.12467 22.1914C4.708 22.7331 4.1455 23.0456 3.43717 23.1289C2.72883 23.2122 2.10383 23.056 1.56217 22.6602C1.0205 22.2643 0.707999 21.7122 0.624665 21.0039C0.374665 19.4206 0.489249 17.8685 0.968415 16.3477C1.44758 14.8268 2.2705 13.4831 3.43717 12.3164L12.2497 3.50391C13.2497 2.54557 14.3642 1.81641 15.5934 1.31641C16.8226 0.816406 18.083 0.566406 19.3747 0.566406C20.6663 0.566406 21.9267 0.816406 23.1559 1.31641C24.3851 1.81641 25.4788 2.54557 26.4372 3.50391L27.1247 4.19141L27.8122 3.50391C28.8122 2.54557 29.9267 1.81641 31.1559 1.31641C32.3851 0.816406 33.6455 0.566406 34.9372 0.566406C36.2288 0.566406 37.4892 0.816406 38.7184 1.31641C39.9476 1.81641 41.0413 2.54557 41.9997 3.50391L52.5622 14.0664C53.5205 15.0247 54.2497 16.1289 54.7497 17.3789C55.2497 18.6289 55.4997 19.8997 55.4997 21.1914C55.4997 22.4831 55.2497 23.7435 54.7497 24.9727C54.2497 26.2018 53.5205 27.2956 52.5622 28.2539L32.0622 48.6914C31.4788 49.2747 30.8017 49.7331 30.0309 50.0664C29.2601 50.3997 28.458 50.5664 27.6247 50.5664Z" fill="#BE9C74"/>
</svg>
