<svg width="16" height="16" viewBox="0 0 16 16" fill="none" xmlns="http://www.w3.org/2000/svg">
<path d="M3.26629 9.73346L2.88296 10.9001C2.83851 11.0224 2.76073 11.1251 2.64962 11.2085C2.53851 11.2918 2.41629 11.3335 2.28296 11.3335C2.06073 11.3335 1.88018 11.2418 1.74129 11.0585C1.6024 10.8751 1.5774 10.6724 1.66629 10.4501L3.66629 5.10013C3.72185 4.9668 3.80518 4.86124 3.91629 4.78346C4.0274 4.70569 4.15518 4.6668 4.29962 4.6668H4.79962C4.94407 4.6668 5.07185 4.70569 5.18296 4.78346C5.29407 4.86124 5.3774 4.9668 5.43296 5.10013L7.44962 10.4835C7.5274 10.6946 7.5024 10.889 7.37462 11.0668C7.24685 11.2446 7.07185 11.3335 6.84962 11.3335C6.71629 11.3335 6.59407 11.2918 6.48296 11.2085C6.37185 11.1251 6.29407 11.0224 6.24962 10.9001L5.83296 9.73346H3.26629ZM3.66629 8.60013H5.39962L4.59962 6.10013H4.49962L3.66629 8.60013ZM10.633 10.1335H13.3996C13.5663 10.1335 13.708 10.1918 13.8246 10.3085C13.9413 10.4251 13.9996 10.5668 13.9996 10.7335C13.9996 10.9001 13.9413 11.0418 13.8246 11.1585C13.708 11.2751 13.5663 11.3335 13.3996 11.3335H9.53296C9.42185 11.3335 9.3274 11.2946 9.24962 11.2168C9.17185 11.139 9.13296 11.0446 9.13296 10.9335V10.3001C9.13296 10.2224 9.14407 10.1474 9.16629 10.0751C9.18851 10.0029 9.2274 9.93902 9.28296 9.88346L12.4996 5.8668H9.86629C9.69962 5.8668 9.55796 5.80846 9.44129 5.6918C9.32462 5.57513 9.26629 5.43346 9.26629 5.2668C9.26629 5.10013 9.32462 4.95846 9.44129 4.8418C9.55796 4.72513 9.69962 4.6668 9.86629 4.6668H13.5663C13.6774 4.6668 13.7718 4.70569 13.8496 4.78346C13.9274 4.86124 13.9663 4.95569 13.9663 5.0668V5.70013C13.9663 5.77791 13.9552 5.85291 13.933 5.92513C13.9107 5.99735 13.8718 6.06124 13.8163 6.1168L10.633 10.1335ZM6.39962 3.33346C6.32185 3.33346 6.26907 3.30013 6.24129 3.23346C6.21351 3.1668 6.2274 3.10569 6.28296 3.05013L7.76629 1.5668C7.83296 1.50013 7.91074 1.4668 7.99962 1.4668C8.08851 1.4668 8.16629 1.50013 8.23296 1.5668L9.71629 3.05013C9.77185 3.10569 9.78574 3.1668 9.75796 3.23346C9.73018 3.30013 9.6774 3.33346 9.59962 3.33346H6.39962ZM7.76629 14.4335L6.28296 12.9501C6.2274 12.8946 6.21351 12.8335 6.24129 12.7668C6.26907 12.7001 6.32185 12.6668 6.39962 12.6668H9.59962C9.6774 12.6668 9.73018 12.7001 9.75796 12.7668C9.78574 12.8335 9.77185 12.8946 9.71629 12.9501L8.23296 14.4335C8.16629 14.5001 8.08851 14.5335 7.99962 14.5335C7.91074 14.5335 7.83296 14.5001 7.76629 14.4335Z" fill="#8B6941"/>
</svg>
