<svg width="24" height="25" viewBox="0 0 24 25" fill="none" xmlns="http://www.w3.org/2000/svg">
<path d="M11.9998 10.8258L8.0998 14.7258C7.91647 14.9091 7.68314 15.0008 7.3998 15.0008C7.11647 15.0008 6.88314 14.9091 6.6998 14.7258C6.51647 14.5424 6.4248 14.3091 6.4248 14.0258C6.4248 13.7424 6.51647 13.5091 6.6998 13.3258L11.2998 8.72578C11.4998 8.52578 11.7331 8.42578 11.9998 8.42578C12.2665 8.42578 12.4998 8.52578 12.6998 8.72578L17.2998 13.3258C17.4831 13.5091 17.5748 13.7424 17.5748 14.0258C17.5748 14.3091 17.4831 14.5424 17.2998 14.7258C17.1165 14.9091 16.8831 15.0008 16.5998 15.0008C16.3165 15.0008 16.0831 14.9091 15.8998 14.7258L11.9998 10.8258Z" fill="white"/>
</svg>
