<svg width="24" height="24" viewBox="0 0 24 24" fill="none" xmlns="http://www.w3.org/2000/svg">
<path d="M4.6155 19C4.15517 19 3.77083 18.8458 3.4625 18.5375C3.15417 18.2292 3 17.8448 3 17.3845V6.6155C3 6.15517 3.15417 5.77083 3.4625 5.4625C3.77083 5.15417 4.15517 5 4.6155 5H19.3845C19.8448 5 20.2292 5.15417 20.5375 5.4625C20.8458 5.77083 21 6.15517 21 6.6155V17.3845C21 17.8448 20.8458 18.2292 20.5375 18.5375C20.2292 18.8458 19.8448 19 19.3845 19H4.6155ZM12 12.1155L4 6.8845V17.3845C4 17.564 4.05767 17.7115 4.173 17.827C4.2885 17.9423 4.436 18 4.6155 18H19.3845C19.564 18 19.7115 17.9423 19.827 17.827C19.9423 17.7115 20 17.564 20 17.3845V6.8845L12 12.1155ZM12 11L19.6923 6H4.30775L12 11ZM4 6.8845V6V17.3845C4 17.564 4.05767 17.7115 4.173 17.827C4.2885 17.9423 4.436 18 4.6155 18H4V6.8845Z" fill="white"/>
</svg>

