<svg width="90" height="90" viewBox="0 0 90 90" fill="none" xmlns="http://www.w3.org/2000/svg">
<path d="M35 62.885L62.885 45L35 27.115V62.885ZM45.0163 90C38.7938 90 32.9433 88.8192 27.465 86.4575C21.9875 84.0958 17.2225 80.8908 13.17 76.8425C9.1175 72.7942 5.90958 68.0333 3.54625 62.56C1.18208 57.0875 0 51.2396 0 45.0163C0 38.7938 1.18083 32.9433 3.5425 27.465C5.90417 21.9875 9.10917 17.2225 13.1575 13.17C17.2058 9.1175 21.9667 5.90958 27.44 3.54625C32.9125 1.18208 38.7604 0 44.9837 0C51.2062 0 57.0567 1.18084 62.535 3.5425C68.0125 5.90417 72.7775 9.10917 76.83 13.1575C80.8825 17.2058 84.0904 21.9667 86.4538 27.44C88.8179 32.9125 90 38.7604 90 44.9837C90 51.2062 88.8192 57.0567 86.4575 62.535C84.0958 68.0125 80.8908 72.7775 76.8425 76.83C72.7942 80.8825 68.0333 84.0904 62.56 86.4538C57.0875 88.8179 51.2396 90 45.0163 90ZM45 85C56.1667 85 65.625 81.125 73.375 73.375C81.125 65.625 85 56.1667 85 45C85 33.8333 81.125 24.375 73.375 16.625C65.625 8.875 56.1667 5 45 5C33.8333 5 24.375 8.875 16.625 16.625C8.875 24.375 5 33.8333 5 45C5 56.1667 8.875 65.625 16.625 73.375C24.375 81.125 33.8333 85 45 85Z" fill="white"/>
</svg>


