<svg width="52" height="52" viewBox="0 0 52 52" fill="none" xmlns="http://www.w3.org/2000/svg">
<path d="M31.4167 38.9997C29.9 38.9997 28.6181 38.4761 27.5708 37.4288C26.5236 36.3816 26 35.0997 26 33.583C26 32.0663 26.5236 30.7844 27.5708 29.7372C28.6181 28.69 29.9 28.1663 31.4167 28.1663C32.9333 28.1663 34.2153 28.69 35.2625 29.7372C36.3097 30.7844 36.8333 32.0663 36.8333 33.583C36.8333 35.0997 36.3097 36.3816 35.2625 37.4288C34.2153 38.4761 32.9333 38.9997 31.4167 38.9997ZM10.8333 47.6663C9.64167 47.6663 8.62153 47.242 7.77292 46.3934C6.92431 45.5448 6.5 44.5247 6.5 43.333V12.9997C6.5 11.808 6.92431 10.7879 7.77292 9.93926C8.62153 9.09065 9.64167 8.66634 10.8333 8.66634H13V6.49967C13 5.88579 13.2076 5.3712 13.6229 4.95592C14.0382 4.54065 14.5528 4.33301 15.1667 4.33301C15.7806 4.33301 16.2951 4.54065 16.7104 4.95592C17.1257 5.3712 17.3333 5.88579 17.3333 6.49967V8.66634H34.6667V6.49967C34.6667 5.88579 34.8743 5.3712 35.2896 4.95592C35.7049 4.54065 36.2194 4.33301 36.8333 4.33301C37.4472 4.33301 37.9618 4.54065 38.3771 4.95592C38.7924 5.3712 39 5.88579 39 6.49967V8.66634H41.1667C42.3583 8.66634 43.3785 9.09065 44.2271 9.93926C45.0757 10.7879 45.5 11.808 45.5 12.9997V43.333C45.5 44.5247 45.0757 45.5448 44.2271 46.3934C43.3785 47.242 42.3583 47.6663 41.1667 47.6663H10.8333ZM10.8333 43.333H41.1667V21.6663H10.8333V43.333ZM10.8333 17.333H41.1667V12.9997H10.8333V17.333Z" fill="#8B6941"/>
</svg>
