<svg width="24" height="25" viewBox="0 0 24 25" fill="none" xmlns="http://www.w3.org/2000/svg">
<path d="M11.9999 16.5C13.2499 16.5 14.3124 16.0625 15.1874 15.1875C16.0624 14.3125 16.4999 13.25 16.4999 12C16.4999 10.75 16.0624 9.6875 15.1874 8.8125C14.3124 7.9375 13.2499 7.5 11.9999 7.5C10.7499 7.5 9.6874 7.9375 8.8124 8.8125C7.9374 9.6875 7.4999 10.75 7.4999 12C7.4999 13.25 7.9374 14.3125 8.8124 15.1875C9.6874 16.0625 10.7499 16.5 11.9999 16.5ZM11.9999 14.7C11.2499 14.7 10.6124 14.4375 10.0874 13.9125C9.5624 13.3875 9.2999 12.75 9.2999 12C9.2999 11.25 9.5624 10.6125 10.0874 10.0875C10.6124 9.5625 11.2499 9.3 11.9999 9.3C12.7499 9.3 13.3874 9.5625 13.9124 10.0875C14.4374 10.6125 14.6999 11.25 14.6999 12C14.6999 12.75 14.4374 13.3875 13.9124 13.9125C13.3874 14.4375 12.7499 14.7 11.9999 14.7ZM11.9999 19.5C9.76657 19.5 7.72907 18.9 5.8874 17.7C4.04574 16.5 2.59157 14.9167 1.5249 12.95C1.44157 12.8 1.37907 12.6458 1.3374 12.4875C1.29574 12.3292 1.2749 12.1667 1.2749 12C1.2749 11.8333 1.29574 11.6708 1.3374 11.5125C1.37907 11.3542 1.44157 11.2 1.5249 11.05C2.59157 9.08333 4.04574 7.5 5.8874 6.3C7.72907 5.1 9.76657 4.5 11.9999 4.5C14.2332 4.5 16.2707 5.1 18.1124 6.3C19.9541 7.5 21.4082 9.08333 22.4749 11.05C22.5582 11.2 22.6207 11.3542 22.6624 11.5125C22.7041 11.6708 22.7249 11.8333 22.7249 12C22.7249 12.1667 22.7041 12.3292 22.6624 12.4875C22.6207 12.6458 22.5582 12.8 22.4749 12.95C21.4082 14.9167 19.9541 16.5 18.1124 17.7C16.2707 18.9 14.2332 19.5 11.9999 19.5ZM11.9999 17.5C13.8832 17.5 15.6124 17.0042 17.1874 16.0125C18.7624 15.0208 19.9666 13.6833 20.7999 12C19.9666 10.3167 18.7624 8.97917 17.1874 7.9875C15.6124 6.99583 13.8832 6.5 11.9999 6.5C10.1166 6.5 8.3874 6.99583 6.8124 7.9875C5.2374 8.97917 4.03324 10.3167 3.1999 12C4.03324 13.6833 5.2374 15.0208 6.8124 16.0125C8.3874 17.0042 10.1166 17.5 11.9999 17.5Z" fill="#8B6941"/>
</svg>
