<svg width="52" height="52" viewBox="0 0 52 52" fill="none" xmlns="http://www.w3.org/2000/svg">
<path d="M12.9998 47.6663C11.8082 47.6663 10.788 47.242 9.93942 46.3934C9.09081 45.5448 8.6665 44.5247 8.6665 43.333V8.66634C8.6665 7.47467 9.09081 6.45454 9.93942 5.60592C10.788 4.75731 11.8082 4.33301 12.9998 4.33301H38.9998C40.1915 4.33301 41.2116 4.75731 42.0603 5.60592C42.9089 6.45454 43.3332 7.47467 43.3332 8.66634V43.333C43.3332 44.5247 42.9089 45.5448 42.0603 46.3934C41.2116 47.242 40.1915 47.6663 38.9998 47.6663H12.9998ZM12.9998 43.333H38.9998V8.66634H34.6665V21.9372C34.6665 22.3705 34.4859 22.6865 34.1248 22.8851C33.7637 23.0837 33.4026 23.0747 33.0415 22.858L30.3873 21.233C30.0262 21.0163 29.6561 20.908 29.2769 20.908C28.8978 20.908 28.5276 21.0163 28.1665 21.233L25.5123 22.858C25.1512 23.0747 24.7811 23.0837 24.4019 22.8851C24.0228 22.6865 23.8332 22.3705 23.8332 21.9372V8.66634H12.9998V43.333Z" fill="#8B6941"/>
</svg>
