<svg width="52" height="52" viewBox="0 0 52 52" fill="none" xmlns="http://www.w3.org/2000/svg">
<path d="M21.125 45.5C19.2833 45.5 17.6944 44.859 16.3583 43.5771C15.0222 42.2951 14.2639 40.7514 14.0833 38.9458C11.9167 38.6569 10.1111 37.7 8.66667 36.075C7.22222 34.45 6.5 32.5361 6.5 30.3333C6.5 29.575 6.59931 28.8257 6.79792 28.0854C6.99653 27.3451 7.29444 26.65 7.69167 26C7.29444 25.35 6.99653 24.6639 6.79792 23.9417C6.59931 23.2194 6.5 22.4611 6.5 21.6667C6.5 19.4639 7.22222 17.559 8.66667 15.9521C10.1111 14.3451 11.8986 13.3972 14.0292 13.1083C14.1375 11.2667 14.8778 9.70486 16.25 8.42292C17.6222 7.14097 19.2472 6.5 21.125 6.5C22.0639 6.5 22.9396 6.68056 23.7521 7.04167C24.5646 7.40278 25.3139 7.89028 26 8.50417C26.65 7.89028 27.3903 7.40278 28.2208 7.04167C29.0514 6.68056 29.9361 6.5 30.875 6.5C32.7528 6.5 34.3687 7.13194 35.7229 8.39583C37.0771 9.65972 37.8083 11.2125 37.9167 13.0542C40.0472 13.3431 41.8438 14.3 43.3063 15.925C44.7687 17.55 45.5 19.4639 45.5 21.6667C45.5 22.4611 45.4007 23.2194 45.2021 23.9417C45.0035 24.6639 44.7056 25.35 44.3083 26C44.7056 26.65 45.0035 27.3451 45.2021 28.0854C45.4007 28.8257 45.5 29.575 45.5 30.3333C45.5 32.5722 44.7687 34.4951 43.3063 36.1021C41.8438 37.709 40.0292 38.6569 37.8625 38.9458C37.6819 40.7514 36.9326 42.2951 35.6146 43.5771C34.2965 44.859 32.7167 45.5 30.875 45.5C29.9722 45.5 29.0965 45.3285 28.2479 44.9854C27.3993 44.6424 26.65 44.1639 26 43.55C25.3139 44.1639 24.5556 44.6424 23.725 44.9854C22.8944 45.3285 22.0278 45.5 21.125 45.5ZM28.1667 13.5417V38.4583C28.1667 39.2167 28.4285 39.8576 28.9521 40.3812C29.4757 40.9049 30.1167 41.1667 30.875 41.1667C31.5972 41.1667 32.2201 40.8778 32.7437 40.3C33.2674 39.7222 33.5472 39.0722 33.5833 38.35C32.825 38.0611 32.1299 37.6729 31.4979 37.1854C30.866 36.6979 30.2972 36.1111 29.7917 35.425C29.4306 34.9194 29.2951 34.3778 29.3854 33.8C29.4757 33.2222 29.7736 32.7528 30.2792 32.3917C30.7847 32.0306 31.3264 31.8951 31.9042 31.9854C32.4819 32.0757 32.9514 32.3736 33.3125 32.8792C33.7097 33.4569 34.2153 33.8993 34.8292 34.2063C35.4431 34.5132 36.1111 34.6667 36.8333 34.6667C38.025 34.6667 39.0451 34.2424 39.8937 33.3938C40.7424 32.5451 41.1667 31.525 41.1667 30.3333C41.1667 30.1528 41.1576 29.9722 41.1396 29.7917C41.1215 29.6111 41.0764 29.4306 41.0042 29.25C40.3903 29.6111 39.7313 29.8819 39.0271 30.0625C38.3229 30.2431 37.5917 30.3333 36.8333 30.3333C36.2194 30.3333 35.7049 30.1257 35.2896 29.7104C34.8743 29.2951 34.6667 28.7806 34.6667 28.1667C34.6667 27.5528 34.8743 27.0382 35.2896 26.6229C35.7049 26.2076 36.2194 26 36.8333 26C38.025 26 39.0451 25.5757 39.8937 24.7271C40.7424 23.8785 41.1667 22.8583 41.1667 21.6667C41.1667 20.475 40.7424 19.4639 39.8937 18.6333C39.0451 17.8028 38.025 17.3694 36.8333 17.3333C36.4361 17.9833 35.9215 18.5521 35.2896 19.0396C34.6576 19.5271 33.9625 19.9153 33.2042 20.2042C32.6264 20.4208 32.0667 20.4028 31.525 20.15C30.9833 19.8972 30.6222 19.4819 30.4417 18.9042C30.2611 18.3264 30.2882 17.7667 30.5229 17.225C30.7576 16.6833 31.1639 16.3222 31.7417 16.1417C32.2833 15.9611 32.7257 15.6361 33.0688 15.1667C33.4118 14.6972 33.5833 14.1556 33.5833 13.5417C33.5833 12.7833 33.3215 12.1424 32.7979 11.6188C32.2743 11.0951 31.6333 10.8333 30.875 10.8333C30.1167 10.8333 29.4757 11.0951 28.9521 11.6188C28.4285 12.1424 28.1667 12.7833 28.1667 13.5417ZM23.8333 38.4583V13.5417C23.8333 12.7833 23.5715 12.1424 23.0479 11.6188C22.5243 11.0951 21.8833 10.8333 21.125 10.8333C20.3667 10.8333 19.7257 11.0951 19.2021 11.6188C18.6785 12.1424 18.4167 12.7833 18.4167 13.5417C18.4167 14.1194 18.5792 14.6521 18.9042 15.1396C19.2292 15.6271 19.6625 15.9611 20.2042 16.1417C20.7819 16.3222 21.1972 16.6833 21.45 17.225C21.7028 17.7667 21.7389 18.3264 21.5583 18.9042C21.3417 19.4819 20.9625 19.8972 20.4208 20.15C19.8792 20.4028 19.3194 20.4208 18.7417 20.2042C17.9833 19.9153 17.2882 19.5271 16.6562 19.0396C16.0243 18.5521 15.5097 17.9833 15.1125 17.3333C13.9569 17.3694 12.9549 17.8118 12.1063 18.6604C11.2576 19.509 10.8333 20.5111 10.8333 21.6667C10.8333 22.8583 11.2576 23.8785 12.1063 24.7271C12.9549 25.5757 13.975 26 15.1667 26C15.7806 26 16.2951 26.2076 16.7104 26.6229C17.1257 27.0382 17.3333 27.5528 17.3333 28.1667C17.3333 28.7806 17.1257 29.2951 16.7104 29.7104C16.2951 30.1257 15.7806 30.3333 15.1667 30.3333C14.4083 30.3333 13.6771 30.2431 12.9729 30.0625C12.2688 29.8819 11.6097 29.6111 10.9958 29.25C10.9236 29.4306 10.8785 29.6111 10.8604 29.7917C10.8424 29.9722 10.8333 30.1528 10.8333 30.3333C10.8333 31.525 11.2576 32.5451 12.1063 33.3938C12.9549 34.2424 13.975 34.6667 15.1667 34.6667C15.8889 34.6667 16.5569 34.5132 17.1708 34.2063C17.7847 33.8993 18.2903 33.4569 18.6875 32.8792C19.0486 32.3736 19.5181 32.0757 20.0958 31.9854C20.6736 31.8951 21.2153 32.0306 21.7208 32.3917C22.2264 32.7528 22.5243 33.2222 22.6146 33.8C22.7049 34.3778 22.5694 34.9194 22.2083 35.425C21.7028 36.1111 21.125 36.7069 20.475 37.2125C19.825 37.7181 19.1208 38.1153 18.3625 38.4042C18.3986 39.1264 18.6875 39.7674 19.2292 40.3271C19.7708 40.8868 20.4028 41.1667 21.125 41.1667C21.8833 41.1667 22.5243 40.9049 23.0479 40.3812C23.5715 39.8576 23.8333 39.2167 23.8333 38.4583Z" fill="#8B6941"/>
</svg>
