<svg width="24" height="24" viewBox="0 0 24 24" fill="none" xmlns="http://www.w3.org/2000/svg">
<path d="M5.1041 9.60874H8.06324V19.1147H5.1041V9.60874ZM6.58449 4.88477C7.53108 4.88477 8.29784 5.65234 8.29784 6.59648C8.29784 7.54062 7.53108 8.31065 6.58449 8.31065C5.6379 8.31065 4.86951 7.54144 4.86951 6.59648C4.86951 5.65152 5.63626 4.88477 6.58449 4.88477Z" fill="white"/>
<path d="M9.91732 9.60863H12.7514V10.9092H12.7898C13.1854 10.1612 14.1484 9.37402 15.5879 9.37402C18.5797 9.37402 19.1307 11.3416 19.1307 13.9018V19.1154H16.1781V14.4936C16.1781 13.3901 16.1568 11.9727 14.6421 11.9727C13.1274 11.9727 12.8699 13.1735 12.8699 14.4127V19.1146H9.9165V9.60863H9.91732Z" fill="white"/>
<rect x="1" y="1" width="22" height="22" rx="1" stroke="white" stroke-width="2"/>
</svg>
