<svg width="16" height="16" viewBox="0 0 16 16" fill="none" xmlns="http://www.w3.org/2000/svg">
<path d="M8.0027 7.8205C8.29948 7.8205 8.55275 7.71483 8.76253 7.5035C8.97242 7.29217 9.07736 7.03811 9.07736 6.74133C9.07736 6.44455 8.97164 6.19122 8.7602 5.98133C8.54887 5.77156 8.29481 5.66667 7.99803 5.66667C7.70125 5.66667 7.44798 5.77233 7.2382 5.98367C7.02831 6.195 6.92336 6.44906 6.92336 6.74583C6.92336 7.04261 7.02909 7.29594 7.24053 7.50583C7.45187 7.71561 7.70592 7.8205 8.0027 7.8205ZM8.00036 14.0128C6.4337 12.6274 5.25359 11.3353 4.46003 10.1365C3.66636 8.93783 3.26953 7.84705 3.26953 6.86417C3.26953 5.45383 3.72875 4.29056 4.6472 3.37433C5.56553 2.45811 6.68325 2 8.00036 2C9.31748 2 10.4352 2.45811 11.3535 3.37433C12.272 4.29056 12.7312 5.45383 12.7312 6.86417C12.7312 7.84705 12.3344 8.93783 11.5407 10.1365C10.7471 11.3353 9.56703 12.6274 8.00036 14.0128Z" fill="#5F5F5F"/>
</svg>
