<svg width="52" height="52" viewBox="0 0 52 52" fill="none" xmlns="http://www.w3.org/2000/svg">
<path d="M11.9168 47.6663C9.82239 47.6663 8.03489 46.9261 6.55433 45.4455C5.07377 43.965 4.3335 42.1775 4.3335 40.083C4.3335 37.9886 5.07377 36.2011 6.55433 34.7205C8.03489 33.24 9.82239 32.4997 11.9168 32.4997C12.5668 32.4997 13.1988 32.5809 13.8127 32.7434C14.4266 32.9059 15.0043 33.1316 15.546 33.4205L23.8335 25.133V19.1747C22.2446 18.7052 20.9446 17.8115 19.9335 16.4934C18.9224 15.1754 18.4168 13.6497 18.4168 11.9163C18.4168 9.8219 19.1571 8.0344 20.6377 6.55384C22.1182 5.07329 23.9057 4.33301 26.0002 4.33301C28.0946 4.33301 29.8821 5.07329 31.3627 6.55384C32.8432 8.0344 33.5835 9.8219 33.5835 11.9163C33.5835 13.6497 33.0779 15.1754 32.0668 16.4934C31.0557 17.8115 29.7557 18.7052 28.1668 19.1747V25.133L36.5085 33.4205C37.0502 33.1316 37.6189 32.9059 38.2147 32.7434C38.8106 32.5809 39.4335 32.4997 40.0835 32.4997C42.1779 32.4997 43.9654 33.24 45.446 34.7205C46.9266 36.2011 47.6668 37.9886 47.6668 40.083C47.6668 42.1775 46.9266 43.965 45.446 45.4455C43.9654 46.9261 42.1779 47.6663 40.0835 47.6663C37.9891 47.6663 36.2016 46.9261 34.721 45.4455C33.2404 43.965 32.5002 42.1775 32.5002 40.083C32.5002 39.433 32.5814 38.8011 32.7439 38.1872C32.9064 37.5733 33.1321 36.9955 33.421 36.4538L26.0002 29.033L18.5793 36.4538C18.8682 36.9955 19.0939 37.5733 19.2564 38.1872C19.4189 38.8011 19.5002 39.433 19.5002 40.083C19.5002 42.1775 18.7599 43.965 17.2793 45.4455C15.7988 46.9261 14.0113 47.6663 11.9168 47.6663ZM40.0835 43.333C40.9863 43.333 41.7536 43.017 42.3856 42.3851C43.0175 41.7532 43.3335 40.9858 43.3335 40.083C43.3335 39.1802 43.0175 38.4129 42.3856 37.7809C41.7536 37.149 40.9863 36.833 40.0835 36.833C39.1807 36.833 38.4134 37.149 37.7814 37.7809C37.1495 38.4129 36.8335 39.1802 36.8335 40.083C36.8335 40.9858 37.1495 41.7532 37.7814 42.3851C38.4134 43.017 39.1807 43.333 40.0835 43.333ZM26.0002 15.1663C26.9029 15.1663 27.6703 14.8504 28.3022 14.2184C28.9342 13.5865 29.2502 12.8191 29.2502 11.9163C29.2502 11.0136 28.9342 10.2462 28.3022 9.61426C27.6703 8.98231 26.9029 8.66634 26.0002 8.66634C25.0974 8.66634 24.33 8.98231 23.6981 9.61426C23.0661 10.2462 22.7502 11.0136 22.7502 11.9163C22.7502 12.8191 23.0661 13.5865 23.6981 14.2184C24.33 14.8504 25.0974 15.1663 26.0002 15.1663ZM11.9168 43.333C12.8196 43.333 13.587 43.017 14.2189 42.3851C14.8509 41.7532 15.1668 40.9858 15.1668 40.083C15.1668 39.1802 14.8509 38.4129 14.2189 37.7809C13.587 37.149 12.8196 36.833 11.9168 36.833C11.0141 36.833 10.2467 37.149 9.61475 37.7809C8.9828 38.4129 8.66683 39.1802 8.66683 40.083C8.66683 40.9858 8.9828 41.7532 9.61475 42.3851C10.2467 43.017 11.0141 43.333 11.9168 43.333Z" fill="#8B6941"/>
</svg>
