<svg width="60" height="61" viewBox="0 0 60 61" fill="none" xmlns="http://www.w3.org/2000/svg">
<path d="M10 50.5664C8.625 50.5664 7.44792 50.0768 6.46875 49.0977C5.48958 48.1185 5 46.9414 5 45.5664V43.5664C5 42.1497 5.36458 40.8477 6.09375 39.6602C6.82292 38.4727 7.79167 37.5664 9 36.9414C10.2917 36.2747 11.5938 35.7122 12.9063 35.2539C14.2188 34.7956 15.5417 34.3997 16.875 34.0664C17.8333 33.8581 18.7708 33.6706 19.6875 33.5039C20.6042 33.3372 21.5417 33.2122 22.5 33.1289C23.2083 33.0456 23.8021 33.2539 24.2812 33.7539C24.7604 34.2539 25 34.8581 25 35.5664C25 36.2747 24.7604 36.8685 24.2812 37.3477C23.8021 37.8268 23.2083 38.1081 22.5 38.1914C21.75 38.2747 21.0104 38.3581 20.2812 38.4414C19.5521 38.5247 18.8125 38.6706 18.0625 38.8789C16.8958 39.1706 15.75 39.5247 14.625 39.9414C13.5 40.3581 12.375 40.8581 11.25 41.4414C10.875 41.6497 10.5729 41.9414 10.3438 42.3164C10.1146 42.6914 10 43.1081 10 43.5664V45.5664H23.625C24.3333 45.5664 24.9271 45.806 25.4062 46.2852C25.8854 46.7643 26.125 47.3581 26.125 48.0664C26.125 48.7747 25.8854 49.3685 25.4062 49.8477C24.9271 50.3268 24.3333 50.5664 23.625 50.5664H10ZM25 30.5664C22.25 30.5664 19.8958 29.5872 17.9375 27.6289C15.9792 25.6706 15 23.3164 15 20.5664C15 17.8164 15.9792 15.4622 17.9375 13.5039C19.8958 11.5456 22.25 10.5664 25 10.5664C27.75 10.5664 30.1042 11.5456 32.0625 13.5039C34.0208 15.4622 35 17.8164 35 20.5664C35 23.3164 34.0208 25.6706 32.0625 27.6289C30.1042 29.5872 27.75 30.5664 25 30.5664ZM25 25.5664C26.375 25.5664 27.5521 25.0768 28.5312 24.0977C29.5104 23.1185 30 21.9414 30 20.5664C30 19.1914 29.5104 18.0143 28.5312 17.0352C27.5521 16.056 26.375 15.5664 25 15.5664C23.625 15.5664 22.4479 16.056 21.4688 17.0352C20.4896 18.0143 20 19.1914 20 20.5664C20 21.9414 20.4896 23.1185 21.4688 24.0977C22.4479 25.0768 23.625 25.5664 25 25.5664Z" fill="#BE9C74"/>
<path d="M42.5 48.0664C44.875 48.0664 47.1146 47.5247 49.2188 46.4414C51.3229 45.3581 53.0417 43.8164 54.375 41.8164C53.0417 39.8164 51.3229 38.2747 49.2188 37.1914C47.1146 36.1081 44.875 35.5664 42.5 35.5664C40.125 35.5664 37.8854 36.1081 35.7812 37.1914C33.6771 38.2747 31.9583 39.8164 30.625 41.8164C31.9583 43.8164 33.6771 45.3581 35.7812 46.4414C37.8854 47.5247 40.125 48.0664 42.5 48.0664ZM42.5 45.5664C41.4583 45.5664 40.5729 45.2018 39.8438 44.4727C39.1146 43.7435 38.75 42.8581 38.75 41.8164C38.75 40.7747 39.1146 39.8893 39.8438 39.1602C40.5729 38.431 41.4583 38.0664 42.5 38.0664C43.5417 38.0664 44.4271 38.431 45.1562 39.1602C45.8854 39.8893 46.25 40.7747 46.25 41.8164C46.25 42.8581 45.8854 43.7435 45.1562 44.4727C44.4271 45.2018 43.5417 45.5664 42.5 45.5664ZM42.5 53.0664C39.2083 53.0664 36.1354 52.3164 33.2812 50.8164C30.4271 49.3164 28.125 47.1914 26.375 44.4414C26.125 44.0664 25.9375 43.6602 25.8125 43.2227C25.6875 42.7852 25.625 42.3372 25.625 41.8789C25.625 41.4206 25.6875 40.9622 25.8125 40.5039C25.9375 40.0456 26.125 39.6081 26.375 39.1914C28.125 36.4414 30.4271 34.3164 33.2812 32.8164C36.1354 31.3164 39.2083 30.5664 42.5 30.5664C45.7917 30.5664 48.8646 31.3164 51.7188 32.8164C54.5729 34.3164 56.875 36.4414 58.625 39.1914C58.875 39.6081 59.0625 40.0352 59.1875 40.4727C59.3125 40.9102 59.375 41.3581 59.375 41.8164C59.375 42.2747 59.3125 42.7227 59.1875 43.1602C59.0625 43.5977 58.875 44.0247 58.625 44.4414C56.875 47.1914 54.5729 49.3164 51.7188 50.8164C48.8646 52.3164 45.7917 53.0664 42.5 53.0664Z" fill="#BE9C74"/>
</svg>
