<svg width="40" height="40" viewBox="0 0 40 40" fill="none" xmlns="http://www.w3.org/2000/svg">
<path d="M16 17H18C18.5667 17 19.0417 16.8083 19.425 16.425C19.8083 16.0417 20 15.5667 20 15V13C20 12.4333 19.8083 11.9583 19.425 11.575C19.0417 11.1917 18.5667 11 18 11H15C14.7333 11 14.5 11.1 14.3 11.3C14.1 11.5 14 11.7333 14 12V20C14 20.2667 14.1 20.5 14.3 20.7C14.5 20.9 14.7333 21 15 21C15.2667 21 15.5 20.9 15.7 20.7C15.9 20.5 16 20.2667 16 20V17ZM16 15V13H18V15H16ZM26 21C26.5667 21 27.0417 20.8083 27.425 20.425C27.8083 20.0417 28 19.5667 28 19V13C28 12.4333 27.8083 11.9583 27.425 11.575C27.0417 11.1917 26.5667 11 26 11H23C22.7333 11 22.5 11.1 22.3 11.3C22.1 11.5 22 11.7333 22 12V20C22 20.2667 22.1 20.5 22.3 20.7C22.5 20.9 22.7333 21 23 21H26ZM24 19V13H26V19H24ZM32 17H33C33.2667 17 33.5 16.9 33.7 16.7C33.9 16.5 34 16.2667 34 16C34 15.7333 33.9 15.5 33.7 15.3C33.5 15.1 33.2667 15 33 15H32V13H33C33.2667 13 33.5 12.9 33.7 12.7C33.9 12.5 34 12.2667 34 12C34 11.7333 33.9 11.5 33.7 11.3C33.5 11.1 33.2667 11 33 11H31C30.7333 11 30.5 11.1 30.3 11.3C30.1 11.5 30 11.7333 30 12V20C30 20.2667 30.1 20.5 30.3 20.7C30.5 20.9 30.7333 21 31 21C31.2667 21 31.5 20.9 31.7 20.7C31.9 20.5 32 20.2667 32 20V17ZM12 32C10.9 32 9.95833 31.6083 9.175 30.825C8.39167 30.0417 8 29.1 8 28V4C8 2.9 8.39167 1.95833 9.175 1.175C9.95833 0.391667 10.9 0 12 0H36C37.1 0 38.0417 0.391667 38.825 1.175C39.6083 1.95833 40 2.9 40 4V28C40 29.1 39.6083 30.0417 38.825 30.825C38.0417 31.6083 37.1 32 36 32H12ZM4 40C2.9 40 1.95833 39.6083 1.175 38.825C0.391667 38.0417 0 37.1 0 36V10C0 9.43333 0.191667 8.95833 0.575 8.575C0.958333 8.19167 1.43333 8 2 8C2.56667 8 3.04167 8.19167 3.425 8.575C3.80833 8.95833 4 9.43333 4 10V36H30C30.5667 36 31.0417 36.1917 31.425 36.575C31.8083 36.9583 32 37.4333 32 38C32 38.5667 31.8083 39.0417 31.425 39.425C31.0417 39.8083 30.5667 40 30 40H4Z" fill="#4597F7"/>
</svg>
