<svg width="18" height="18" viewBox="0 0 18 18" fill="none" xmlns="http://www.w3.org/2000/svg">
<path d="M2 0.0126953H16C16.5467 0.0126953 17.014 0.207339 17.4033 0.59668C17.7927 0.986021 17.9873 1.45334 17.9873 2V16C17.9873 16.5467 17.7927 17.014 17.4033 17.4033C17.014 17.7927 16.5467 17.9873 16 17.9873H2C1.45334 17.9873 0.986021 17.7927 0.59668 17.4033C0.207339 17.014 0.0126953 16.5467 0.0126953 16V2C0.0126953 1.45334 0.207338 0.986021 0.59668 0.59668C0.986021 0.207338 1.45334 0.0126953 2 0.0126953ZM1.9873 16.0127H16.0127V1.9873H1.9873V16.0127ZM13.25 5.1875C13.5304 5.1875 13.7606 5.27822 13.9414 5.45898C14.122 5.63971 14.2129 5.87013 14.2129 6.15039C14.2128 6.43042 14.1219 6.66019 13.9414 6.84082L8.29102 12.4912C8.09322 12.689 7.8627 12.7871 7.59961 12.7871C7.33672 12.787 7.10685 12.6888 6.90918 12.4912L4.05859 9.6416C3.87788 9.46088 3.78715 9.23046 3.78711 8.9502C3.78711 8.66989 3.8779 8.43953 4.05859 8.25879C4.23935 8.07803 4.46964 7.9873 4.75 7.9873C5.03036 7.9873 5.26065 8.07803 5.44141 8.25879L7.59082 10.4092L7.59961 10.418L12.5586 5.45898C12.7394 5.27822 12.9696 5.1875 13.25 5.1875Z"
      fill="#B7B7B7" stroke="#B7B7B7" stroke-width="0.025"/>
</svg>