<svg width="52" height="52" viewBox="0 0 52 52" fill="none" xmlns="http://www.w3.org/2000/svg">
<path d="M26.0002 45.5C25.3863 45.5 24.8717 45.2924 24.4564 44.8771C24.0411 44.4618 23.8335 43.9472 23.8335 43.3333C23.8335 42.7194 24.0411 42.2049 24.4564 41.7896C24.8717 41.3743 25.3863 41.1667 26.0002 41.1667H41.1668V25.7833C41.1668 21.5583 39.6953 17.9743 36.7522 15.0312C33.8092 12.0882 30.2252 10.6167 26.0002 10.6167C21.7752 10.6167 18.1911 12.0882 15.2481 15.0312C12.305 17.9743 10.8335 21.5583 10.8335 25.7833V36.8333C10.8335 37.4472 10.6259 37.9618 10.2106 38.3771C9.7953 38.7924 9.28072 39 8.66683 39C7.47516 39 6.45502 38.5757 5.60641 37.7271C4.7578 36.8785 4.3335 35.8583 4.3335 34.6667V30.3333C4.3335 29.575 4.52308 28.8618 4.90225 28.1938C5.28141 27.5257 5.81405 26.9931 6.50016 26.5958L6.66266 23.725C6.95155 21.2694 7.66475 18.9944 8.80225 16.9C9.93975 14.8056 11.3661 12.9819 13.0814 11.4292C14.7967 9.87639 16.7647 8.66667 18.9856 7.8C21.2064 6.93333 23.5446 6.5 26.0002 6.5C28.4557 6.5 30.7849 6.93333 32.9877 7.8C35.1904 8.66667 37.1585 9.86736 38.8918 11.4021C40.6252 12.9368 42.0516 14.7514 43.171 16.8458C44.2904 18.9403 45.0127 21.2153 45.3377 23.6708L45.5002 26.4875C46.1863 26.8125 46.7189 27.3 47.0981 27.95C47.4772 28.6 47.6668 29.2861 47.6668 30.0083V34.9917C47.6668 35.7139 47.4772 36.4 47.0981 37.05C46.7189 37.7 46.1863 38.1875 45.5002 38.5125V41.1667C45.5002 42.3583 45.0759 43.3785 44.2272 44.2271C43.3786 45.0757 42.3585 45.5 41.1668 45.5H26.0002ZM19.5002 30.3333C18.8863 30.3333 18.3717 30.1257 17.9564 29.7104C17.5411 29.2951 17.3335 28.7806 17.3335 28.1667C17.3335 27.5528 17.5411 27.0382 17.9564 26.6229C18.3717 26.2076 18.8863 26 19.5002 26C20.1141 26 20.6286 26.2076 21.0439 26.6229C21.4592 27.0382 21.6668 27.5528 21.6668 28.1667C21.6668 28.7806 21.4592 29.2951 21.0439 29.7104C20.6286 30.1257 20.1141 30.3333 19.5002 30.3333ZM32.5002 30.3333C31.8863 30.3333 31.3717 30.1257 30.9564 29.7104C30.5411 29.2951 30.3335 28.7806 30.3335 28.1667C30.3335 27.5528 30.5411 27.0382 30.9564 26.6229C31.3717 26.2076 31.8863 26 32.5002 26C33.1141 26 33.6286 26.2076 34.0439 26.6229C34.4592 27.0382 34.6668 27.5528 34.6668 28.1667C34.6668 28.7806 34.4592 29.2951 34.0439 29.7104C33.6286 30.1257 33.1141 30.3333 32.5002 30.3333ZM13.0543 26.975C12.8016 23.1472 13.9571 19.8611 16.521 17.1167C19.0849 14.3722 22.2807 13 26.1085 13C29.3224 13 32.1481 14.0201 34.5856 16.0604C37.0231 18.1007 38.4946 20.7097 39.0002 23.8875C35.7141 23.8514 32.6897 22.9667 29.9272 21.2333C27.1647 19.5 25.0432 17.1528 23.5627 14.1917C22.9849 17.0806 21.7661 19.6535 19.9064 21.9104C18.0467 24.1674 15.7627 25.8556 13.0543 26.975Z" fill="#8B6941"/>
</svg>
