<svg width="52" height="52" viewBox="0 0 52 52" fill="none" xmlns="http://www.w3.org/2000/svg">
<path d="M13.1081 38.5124C12.3859 38.1151 11.8262 37.5825 11.4289 36.9145C11.0317 36.2464 10.8331 35.4971 10.8331 34.6665V24.2665L5.63311 21.3957C5.23588 21.179 4.94699 20.9082 4.76644 20.5832C4.58588 20.2582 4.49561 19.8971 4.49561 19.4999C4.49561 19.1026 4.58588 18.7415 4.76644 18.4165C4.94699 18.0915 5.23588 17.8207 5.63311 17.604L23.9414 7.63737C24.2664 7.45681 24.6005 7.3214 24.9435 7.23112C25.2866 7.14084 25.6387 7.0957 25.9998 7.0957C26.3609 7.0957 26.713 7.14084 27.056 7.23112C27.3991 7.3214 27.7331 7.45681 28.0581 7.63737L48.6956 18.904C49.0567 19.0846 49.3366 19.3464 49.5352 19.6895C49.7338 20.0325 49.8331 20.4026 49.8331 20.7999V34.6665C49.8331 35.2804 49.6255 35.795 49.2102 36.2103C48.7949 36.6256 48.2803 36.8332 47.6664 36.8332C47.0526 36.8332 46.538 36.6256 46.1227 36.2103C45.7074 35.795 45.4998 35.2804 45.4998 34.6665V21.8832L41.1664 24.2665V34.6665C41.1664 35.4971 40.9678 36.2464 40.5706 36.9145C40.1734 37.5825 39.6137 38.1151 38.8914 38.5124L28.0581 44.3624C27.7331 44.5429 27.3991 44.6783 27.056 44.7686C26.713 44.8589 26.3609 44.904 25.9998 44.904C25.6387 44.904 25.2866 44.8589 24.9435 44.7686C24.6005 44.6783 24.2664 44.5429 23.9414 44.3624L13.1081 38.5124ZM25.9998 27.5165L40.8414 19.4999L25.9998 11.4832L11.1581 19.4999L25.9998 27.5165ZM25.9998 40.5707L36.8331 34.7207V26.5415L28.1123 31.3624C27.7873 31.5429 27.4442 31.6783 27.0831 31.7686C26.722 31.8589 26.3609 31.904 25.9998 31.904C25.6387 31.904 25.2775 31.8589 24.9164 31.7686C24.5553 31.6783 24.2123 31.5429 23.8873 31.3624L15.1664 26.5415V34.7207L25.9998 40.5707Z" fill="#8B6941"/>
</svg>
