<svg width="60" height="61" viewBox="0 0 60 61" fill="none" xmlns="http://www.w3.org/2000/svg">
<path d="M12.5 55.5661C11.125 55.5661 9.94792 55.0765 8.96875 54.0973C7.98958 53.1182 7.5 51.9411 7.5 50.5661V41.0661C7.5 40.4827 7.60417 39.8994 7.8125 39.3161C8.02083 38.7327 8.33333 38.2119 8.75 37.7536L12.625 33.3786C13.0833 32.8369 13.6771 32.5557 14.4062 32.5348C15.1354 32.514 15.75 32.7536 16.25 33.2536C16.7083 33.7119 16.9583 34.2744 17 34.9411C17.0417 35.6077 16.8333 36.1911 16.375 36.6911L12.9375 40.5661H47.0625L43.75 36.8161C43.2917 36.3161 43.0833 35.7327 43.125 35.0661C43.1667 34.3994 43.4167 33.8369 43.875 33.3786C44.375 32.8786 44.9896 32.639 45.7188 32.6598C46.4479 32.6807 47.0417 32.9619 47.5 33.5036L51.25 37.7536C51.6667 38.2119 51.9792 38.7327 52.1875 39.3161C52.3958 39.8994 52.5 40.4827 52.5 41.0661V50.5661C52.5 51.9411 52.0104 53.1182 51.0312 54.0973C50.0521 55.0765 48.875 55.5661 47.5 55.5661H12.5ZM12.5 50.5661H47.5V45.5661H12.5V50.5661ZM26.5625 36.5036L17.75 27.6911C16.7917 26.7327 16.3229 25.5557 16.3438 24.1598C16.3646 22.764 16.8542 21.5869 17.8125 20.6286L30.0625 8.37858C31.0208 7.42025 32.2083 6.92025 33.625 6.87858C35.0417 6.83691 36.2292 7.29525 37.1875 8.25358L46 17.0661C46.9583 18.0244 47.4583 19.1911 47.5 20.5661C47.5417 21.9411 47.0833 23.1077 46.125 24.0661L33.625 36.5661C32.6667 37.5244 31.4896 37.9932 30.0938 37.9723C28.6979 37.9515 27.5208 37.4619 26.5625 36.5036ZM42.5 20.6286L33.6875 11.8161L21.3125 24.1911L30.125 33.0036L42.5 20.6286Z" fill="#BE9C74"/>
</svg>
