<svg width="24" height="24" viewBox="0 0 24 24" fill="none" xmlns="http://www.w3.org/2000/svg">
<path d="M19.9291 9.92954C19.9291 8.00775 18.3711 6.44971 16.4493 6.44971H7.55063C5.62883 6.44971 4.0708 8.00775 4.0708 9.92954V14.0707C4.0708 15.9925 5.62883 17.5505 7.55063 17.5505H16.4493C18.3711 17.5505 19.9291 15.9925 19.9291 14.0707V9.92954ZM14.6959 12.3099L10.7051 14.284C10.549 14.3691 10.0168 14.2554 10.0168 14.0772V10.0252C10.0168 9.84535 10.5531 9.73172 10.7092 9.82082L14.5291 11.8988C14.6893 11.9895 14.8577 12.2216 14.695 12.3091L14.6959 12.3099Z" fill="white"/>
<rect x="1" y="1" width="22" height="22" rx="1" stroke="white" stroke-width="2"/>
</svg>
