<svg width="46" height="24" viewBox="0 0 46 24" fill="none" xmlns="http://www.w3.org/2000/svg">
<path d="M25.5 18C24.8 18 24.2083 17.7583 23.725 17.275C23.2417 16.7917 23 16.2 23 15.5C23 14.8 23.2417 14.2083 23.725 13.725C24.2083 13.2417 24.8 13 25.5 13C26.2 13 26.7917 13.2417 27.275 13.725C27.7583 14.2083 28 14.8 28 15.5C28 16.2 27.7583 16.7917 27.275 17.275C26.7917 17.7583 26.2 18 25.5 18ZM16 22C15.45 22 14.9792 21.8042 14.5875 21.4125C14.1958 21.0208 14 20.55 14 20V6C14 5.45 14.1958 4.97917 14.5875 4.5875C14.9792 4.19583 15.45 4 16 4H17V3C17 2.71667 17.0958 2.47917 17.2875 2.2875C17.4792 2.09583 17.7167 2 18 2C18.2833 2 18.5208 2.09583 18.7125 2.2875C18.9042 2.47917 19 2.71667 19 3V4H27V3C27 2.71667 27.0958 2.47917 27.2875 2.2875C27.4792 2.09583 27.7167 2 28 2C28.2833 2 28.5208 2.09583 28.7125 2.2875C28.9042 2.47917 29 2.71667 29 3V4H30C30.55 4 31.0208 4.19583 31.4125 4.5875C31.8042 4.97917 32 5.45 32 6V20C32 20.55 31.8042 21.0208 31.4125 21.4125C31.0208 21.8042 30.55 22 30 22H16ZM16 20H30V10H16V20ZM16 8H30V6H16V8Z" fill="white"/>
</svg>
