<svg width="39" height="24" viewBox="0 0 39 24" fill="none" xmlns="http://www.w3.org/2000/svg">
<path d="M11.5 20C10.95 20 10.4792 19.8042 10.0875 19.4125C9.69583 19.0208 9.5 18.55 9.5 18V6C9.5 5.45 9.69583 4.97917 10.0875 4.5875C10.4792 4.19583 10.95 4 11.5 4H27.5C28.05 4 28.5208 4.19583 28.9125 4.5875C29.3042 4.97917 29.5 5.45 29.5 6V18C29.5 18.55 29.3042 19.0208 28.9125 19.4125C28.5208 19.8042 28.05 20 27.5 20H11.5ZM27.5 8L20.025 12.675C19.9417 12.725 19.8542 12.7625 19.7625 12.7875C19.6708 12.8125 19.5833 12.825 19.5 12.825C19.4167 12.825 19.3292 12.8125 19.2375 12.7875C19.1458 12.7625 19.0583 12.725 18.975 12.675L11.5 8V18H27.5V8ZM19.5 11L27.5 6H11.5L19.5 11ZM11.5 8.25V6.775V6.8V6.7875V8.25Z" fill="white"/>
</svg>
