<svg width="86" height="24" viewBox="0 0 86 24" fill="none" xmlns="http://www.w3.org/2000/svg">
<path d="M35 21C34.45 21 33.9792 20.8042 33.5875 20.4125C33.1958 20.0208 33 19.55 33 19V5C33 4.45 33.1958 3.97917 33.5875 3.5875C33.9792 3.19583 34.45 3 35 3H51C51.55 3 52.0208 3.19583 52.4125 3.5875C52.8042 3.97917 53 4.45 53 5V19C53 19.55 52.8042 20.0208 52.4125 20.4125C52.0208 20.8042 51.55 21 51 21H35ZM35 19H51V5H35V19ZM38 17H48C48.2833 17 48.5208 16.9042 48.7125 16.7125C48.9042 16.5208 49 16.2833 49 16C49 15.7167 48.9042 15.4792 48.7125 15.2875C48.5208 15.0958 48.2833 15 48 15H38C37.7167 15 37.4792 15.0958 37.2875 15.2875C37.0958 15.4792 37 15.7167 37 16C37 16.2833 37.0958 16.5208 37.2875 16.7125C37.4792 16.9042 37.7167 17 38 17ZM38 13H40C40.2833 13 40.5208 12.9042 40.7125 12.7125C40.9042 12.5208 41 12.2833 41 12V8C41 7.71667 40.9042 7.47917 40.7125 7.2875C40.5208 7.09583 40.2833 7 40 7H38C37.7167 7 37.4792 7.09583 37.2875 7.2875C37.0958 7.47917 37 7.71667 37 8V12C37 12.2833 37.0958 12.5208 37.2875 12.7125C37.4792 12.9042 37.7167 13 38 13ZM44 13H48C48.2833 13 48.5208 12.9042 48.7125 12.7125C48.9042 12.5208 49 12.2833 49 12C49 11.7167 48.9042 11.4792 48.7125 11.2875C48.5208 11.0958 48.2833 11 48 11H44C43.7167 11 43.4792 11.0958 43.2875 11.2875C43.0958 11.4792 43 11.7167 43 12C43 12.2833 43.0958 12.5208 43.2875 12.7125C43.4792 12.9042 43.7167 13 44 13ZM44 9H48C48.2833 9 48.5208 8.90417 48.7125 8.7125C48.9042 8.52083 49 8.28333 49 8C49 7.71667 48.9042 7.47917 48.7125 7.2875C48.5208 7.09583 48.2833 7 48 7H44C43.7167 7 43.4792 7.09583 43.2875 7.2875C43.0958 7.47917 43 7.71667 43 8C43 8.28333 43.0958 8.52083 43.2875 8.7125C43.4792 8.90417 43.7167 9 44 9Z" fill="white"/>
</svg>
