<svg width="629" height="258" viewBox="0 0 629 258" fill="none" xmlns="http://www.w3.org/2000/svg">
<g clip-path="url(#clip0_7494_84985)">
<path d="M228.501 141.615L251.577 138.973L257.152 160.375H224.836L228.501 141.615Z" fill="#E1A78A"/>
<path d="M290.873 158.33C288.563 156.638 286.929 154.177 286.262 151.389C285.595 148.601 285.939 145.665 287.233 143.108C287.496 142.591 288.309 142.977 288.046 143.494C286.837 145.874 286.516 148.608 287.143 151.204C287.769 153.8 289.301 156.085 291.461 157.649C291.93 157.988 291.34 158.669 290.873 158.33Z" fill="white"/>
<path d="M285.027 182.379C290.815 181.532 296.072 178.529 299.749 173.971C300.113 173.519 300.794 174.109 300.43 174.56C296.595 179.297 291.118 182.41 285.093 183.279C284.518 183.361 284.456 182.461 285.027 182.379Z" fill="white"/>
<path d="M301.202 203.949C306.333 206.765 312.334 207.539 318.009 206.117C318.572 205.976 318.761 206.858 318.2 206.999C312.291 208.467 306.048 207.648 300.715 204.707C300.205 204.427 300.697 203.67 301.202 203.949Z" fill="white"/>
<path d="M306.301 205.835C301.994 184.97 296.611 178.014 296.611 178.014L294.555 176.416L292.082 174.491L292.094 174.244L291.507 174.044L291.369 173.937L291.144 173.763L291.107 173.802L291.031 173.882L279.84 170.07L265.641 165.238L259.067 156.675C257.997 155.281 256.618 154.154 255.041 153.383C253.463 152.611 251.728 152.216 249.973 152.229L228.977 152.385C226.137 152.406 223.409 153.49 221.328 155.425L207.527 168.252L186.023 178.543L185.987 178.507L185.761 178.668L182.439 180.26L182.576 180.975L180.519 182.462C180.519 182.462 175.136 188.935 170.83 208.349C169.734 213.289 169.195 223.886 169.001 236.944C168.991 237.604 169.112 238.26 169.358 238.873C169.603 239.486 169.968 240.045 170.43 240.515C170.893 240.986 171.444 241.36 172.052 241.615C172.661 241.87 173.313 242.002 173.973 242.002H303.162C303.821 242.002 304.474 241.87 305.081 241.616C305.689 241.361 306.241 240.987 306.703 240.517C307.166 240.047 307.531 239.489 307.777 238.877C308.022 238.264 308.144 237.609 308.135 236.948C307.945 222.739 307.406 211.192 306.301 205.835Z" fill="#3F3D56"/>
<path d="M242.769 149.673C257.961 149.673 270.276 137.333 270.276 122.11C270.276 106.887 257.961 94.5469 242.769 94.5469C227.577 94.5469 215.262 106.887 215.262 122.11C215.262 137.333 227.577 149.673 242.769 149.673Z" fill="#E1A78A"/>
<path d="M235.734 142.976C235.617 142.716 235.5 142.456 235.383 142.195C235.428 142.195 235.472 142.203 235.518 142.204L235.734 142.976Z" fill="#2F2E41"/>
<path d="M214.498 95.8C215.889 94.6881 217.515 93.6648 219.294 93.7206C221.073 93.7764 222.877 95.3878 222.508 97.1326C225.775 91.3361 230.976 86.8781 237.197 84.541C243.418 82.204 250.261 82.1372 256.526 84.3525C260.947 85.9153 265.282 89.042 266.298 93.6279C266.559 94.8052 266.615 96.0958 267.349 97.052C268.273 98.2558 270.043 98.5298 271.499 98.1059L271.543 98.0931C271.789 98.0089 272.054 98.0006 272.305 98.0693C272.556 98.1381 272.781 98.2806 272.95 98.4786C273.119 98.6766 273.225 98.9209 273.254 99.1799C273.283 99.4389 273.234 99.7007 273.113 99.9314L271.862 102.269C273.439 102.621 275.077 102.586 276.638 102.167C276.897 102.099 277.171 102.113 277.422 102.207C277.673 102.301 277.889 102.471 278.04 102.692C278.191 102.914 278.27 103.178 278.266 103.446C278.262 103.715 278.175 103.975 278.017 104.192C273.893 109.867 267.002 113.531 259.969 113.488C254.972 113.457 249.921 111.731 245.058 112.883C243.177 113.329 241.418 114.191 239.913 115.406C238.407 116.621 237.192 118.158 236.356 119.905C235.521 121.653 235.086 123.565 235.084 125.502C235.083 127.439 235.514 129.353 236.346 131.101C234.853 129.464 231.963 129.851 230.435 131.457C228.906 133.063 228.511 135.459 228.665 137.673C228.9 141.059 230.224 144.249 231.62 147.354C219.919 146.985 208.851 138.76 205.126 127.636C201.384 116.466 205.305 103.148 214.498 95.8Z" fill="#090814"/>
<path opacity="0.2" d="M196.074 199.535L203.789 241.597L208.419 242.001L196.074 199.535Z" fill="black"/>
<path opacity="0.2" d="M281.055 196.361L273.34 241.565L268.711 241.999L281.055 196.361Z" fill="black"/>
<path d="M359.014 39.1016C359.141 40.9153 359.674 42.6769 360.574 44.2556C362.471 47.5935 365.724 50.01 369.227 51.4462C373.603 53.2407 378.482 53.2961 383.127 52.8959C387.441 52.5242 391.711 51.6629 396.041 51.4852C399.389 51.3779 402.741 51.458 406.081 51.7253C412.561 52.186 419.013 53.0411 425.424 54.0775C427.16 54.3548 428.893 54.6527 430.621 54.9713C430.785 54.9857 430.946 55.0157 431.104 55.061C431.135 55.0738 431.186 55.0639 431.213 55.0818C431.265 55.1146 431.002 54.9983 431.162 55.1303C431.384 55.3641 431.583 55.6198 431.754 55.8935L434.12 58.9465C434.799 59.8221 435.431 60.8858 436.307 61.576C436.926 62.055 437.672 62.3397 438.452 62.3942C439.232 62.4486 440.011 62.2705 440.69 61.8821C441.399 61.433 441.965 60.7891 442.32 60.0271C442.864 59.0262 443.514 58.0865 444.258 57.2239C447.075 53.9312 450.99 51.9058 454.264 49.1355C455.85 47.8485 457.204 46.298 458.266 44.5518C459.172 42.9716 459.736 41.2176 459.92 39.4044C460.312 35.7221 459.184 31.9672 457.287 28.8346C455.224 25.4691 452.26 22.751 448.732 20.9892C444.769 18.9664 440.384 17.9807 435.99 17.4896C431.323 16.9683 426.602 16.9698 421.912 17.0227C416.649 17.0813 411.396 17.3132 406.152 17.7184C400.9 18.1257 395.67 18.7047 390.461 19.4552C385.462 20.1753 380.402 20.9261 375.508 22.2003C371.185 23.3261 366.875 25.0856 363.647 28.2739C360.779 31.1095 358.783 34.9881 359.014 39.1016Z" fill="#E7DACB"/>
<path d="M381.854 24.3016C377.187 25.1643 372.304 26.2204 368.388 28.7792C364.516 31.3094 362.163 35.2876 362.39 38.9141C362.725 44.211 368.345 48.1721 373.463 49.2099C378.366 50.2036 383.473 49.5306 388.88 48.8178C390.077 48.6602 391.314 48.4967 392.538 48.3552C405.847 46.8135 430.837 51.5622 431.895 51.765L432.995 51.9759L438.812 59.4769C440.136 56.522 442.439 53.8954 444.883 51.9379C446.002 51.0416 447.17 50.2095 448.3 49.4047C451.181 47.352 453.902 45.4127 455.404 42.7485C458.674 36.9482 454.809 28.8572 449.295 25.2252C443.082 21.1336 434.895 20.4919 426.973 20.4077C426.148 20.3989 425.323 20.3945 424.498 20.3945C410.206 20.3961 395.945 21.7016 381.89 24.295L381.854 24.3016Z" fill="white"/>
<path d="M378.129 30.7144C378.129 30.5535 378.16 30.3942 378.221 30.2455C378.283 30.0969 378.373 29.9617 378.486 29.8479C378.599 29.734 378.734 29.6437 378.882 29.582C379.031 29.5203 379.189 29.4884 379.35 29.4883H435.527C435.851 29.4883 436.162 29.6173 436.392 29.847C436.621 30.0767 436.75 30.3883 436.75 30.7131C436.75 31.038 436.621 31.3495 436.392 31.5792C436.162 31.8089 435.851 31.9379 435.527 31.9379H379.35C379.026 31.9376 378.716 31.8086 378.487 31.5792C378.258 31.3498 378.129 31.0388 378.129 30.7144Z" fill="#E7DACB"/>
<path d="M378.129 38.232C378.129 38.0711 378.16 37.9118 378.221 37.7631C378.283 37.6144 378.373 37.4793 378.486 37.3655C378.599 37.2516 378.734 37.1612 378.882 37.0995C379.031 37.0378 379.189 37.006 379.35 37.0059H435.53C435.854 37.0062 436.165 37.1356 436.394 37.3655C436.623 37.5954 436.751 37.9071 436.751 38.232C436.751 38.5568 436.621 38.8682 436.392 39.0977C436.163 39.3271 435.851 39.4558 435.527 39.4555H379.35C379.026 39.4552 378.716 39.3262 378.487 39.0968C378.258 38.8674 378.129 38.5564 378.129 38.232Z" fill="#E7DACB"/>
<path d="M427.762 45.7495C427.762 45.5887 427.793 45.4294 427.854 45.2807C427.915 45.132 428.005 44.9969 428.119 44.883C428.232 44.7692 428.367 44.6788 428.515 44.6171C428.663 44.5554 428.822 44.5236 428.983 44.5234H435.529C435.854 44.5234 436.164 44.6525 436.394 44.8822C436.623 45.1119 436.752 45.4234 436.752 45.7483C436.752 46.0731 436.623 46.3847 436.394 46.6144C436.164 46.844 435.854 46.9731 435.529 46.9731H428.983C428.659 46.9728 428.349 46.8438 428.12 46.6144C427.891 46.385 427.762 46.074 427.762 45.7495Z" fill="#E7DACB"/>
<path d="M304.807 128.857C304.37 128.841 303.943 128.72 303.563 128.503C303.182 128.286 302.86 127.981 302.623 127.612C300.847 124.953 307.311 119.068 304.807 117.082C303.291 115.868 301.707 114.739 300.175 113.647C296.223 110.831 292.501 108.179 290.435 104.515C285.93 96.5254 291.236 85.3949 298.813 80.4037C307.313 74.8058 318.494 73.9277 329.31 73.8128C330.434 73.8009 331.558 73.7949 332.684 73.7949C352.172 73.8025 371.619 75.5843 390.785 79.1185C397.158 80.2968 403.829 81.74 409.19 85.2428C414.519 88.7248 417.758 94.2082 417.442 99.2129C416.981 106.519 409.251 111.978 402.214 113.404C395.506 114.763 388.537 113.844 381.159 112.871C379.53 112.657 377.846 112.434 376.181 112.242C358.082 110.146 324.083 116.607 322.644 116.883L321.216 117.156L307.036 127.817C306.532 128.477 304.845 128.859 304.807 128.857Z" fill="#C39E72"/>
<path d="M394.162 89.699H317.664C317.223 89.699 316.8 89.5233 316.487 89.2105C316.175 88.8977 316 88.4735 316 88.0312C316 87.5888 316.175 87.1646 316.487 86.8518C316.8 86.539 317.223 86.3633 317.664 86.3633H394.162C394.603 86.3633 395.027 86.539 395.339 86.8518C395.651 87.1646 395.826 87.5888 395.826 88.0312C395.826 88.4735 395.651 88.8977 395.339 89.2105C395.027 89.5233 394.603 89.699 394.162 89.699Z" fill="white"/>
<path d="M394.16 99.9373H317.662C317.221 99.9378 316.797 99.7625 316.485 99.4501C316.172 99.1377 315.997 98.7136 315.996 98.2713C315.996 97.8289 316.171 97.4045 316.482 97.0914C316.794 96.7782 317.217 96.602 317.659 96.6016H394.16C394.601 96.6016 395.025 96.7773 395.337 97.0901C395.649 97.4029 395.824 97.8271 395.824 98.2694C395.824 98.7118 395.649 99.136 395.337 99.4488C395.025 99.7616 394.601 99.9373 394.16 99.9373Z" fill="white"/>
<path d="M326.575 110.174H317.661C317.219 110.174 316.796 109.998 316.484 109.685C316.171 109.372 315.996 108.948 315.996 108.506C315.996 108.063 316.171 107.639 316.484 107.326C316.796 107.014 317.219 106.838 317.661 106.838H326.575C327.017 106.838 327.44 107.014 327.752 107.326C328.064 107.639 328.24 108.063 328.24 108.506C328.24 108.948 328.064 109.372 327.752 109.685C327.44 109.998 327.016 110.174 326.575 110.174Z" fill="white"/>
<path d="M439.986 96.6016C448.502 96.6016 455.406 89.6839 455.406 81.1504C455.406 72.617 448.502 65.6992 439.986 65.6992C431.47 65.6992 424.566 72.617 424.566 81.1504C424.566 89.6839 431.47 96.6016 439.986 96.6016Z" fill="#E7DACB"/>
<mask id="mask0_7494_84985" style="mask-type:luminance" maskUnits="userSpaceOnUse" x="424" y="65" width="32" height="32">
<path d="M439.986 96.6016C448.502 96.6016 455.406 89.6839 455.406 81.1504C455.406 72.617 448.502 65.6992 439.986 65.6992C431.47 65.6992 424.566 72.617 424.566 81.1504C424.566 89.6839 431.47 96.6016 439.986 96.6016Z" fill="white"/>
</mask>
<g mask="url(#mask0_7494_84985)">
<path d="M431.421 78.0234C431.943 76.8159 432.735 75.7446 433.735 74.8924C434.735 74.0401 435.918 73.4296 437.191 73.108C440.018 72.3711 444.158 73.4936 446.283 75.1053C450.17 78.0533 451.119 88.1806 448.448 91.381C447.917 91.3595 446.084 91.3445 445.546 91.3284L444.786 89.3994V91.3095C440.589 91.2106 436.22 91.273 431.848 91.3365C431.456 89.0714 430.523 80.2042 431.421 78.0234Z" fill="#2F2E41"/>
<path d="M436.305 86.0912L441.463 85.6855L442.865 91.8916H436.305V86.0912Z" fill="#ED9DA0"/>
<path d="M437.266 88.9392C440.614 88.9392 443.329 86.2193 443.329 82.8641C443.329 79.509 440.614 76.7891 437.266 76.7891C433.918 76.7891 431.203 79.509 431.203 82.8641C431.203 86.2193 433.918 88.9392 437.266 88.9392Z" fill="#ED9DA0"/>
<path d="M433.1 74.9529C434.265 74.2414 435.599 73.8565 436.964 73.8385C438.328 73.8206 439.672 74.1702 440.855 74.8508C442.038 75.5314 443.017 76.518 443.689 77.7074C444.362 78.8969 444.703 80.2455 444.677 81.6124C441.372 82.4587 437.851 82.8129 434.12 81.8163L433.267 79.7241L432.763 81.8177C431.623 82.6225 430.521 82.621 429.457 81.8134C429.412 80.4504 429.725 79.0994 430.364 77.8955C431.004 76.6916 431.947 75.6769 433.1 74.9529Z" fill="#2F2E41"/>
<path d="M428.33 124.325C428.388 124.099 428.515 123.897 428.694 123.748C428.873 123.599 429.095 123.511 429.327 123.496C429.557 120.858 431.079 103.937 431.136 103.441L431.139 103.42L431.579 93.9888C431.595 93.6463 431.737 93.3217 431.976 93.077C432.216 92.8323 432.537 92.6847 432.879 92.6624L435.206 92.5099C435.238 92.5089 435.268 92.4954 435.29 92.4724C435.313 92.4494 435.325 92.4186 435.325 92.3866C435.325 91.8666 435.531 91.3678 435.898 91.0001C436.265 90.6324 436.763 90.4258 437.282 90.4258H444.173C444.619 90.426 445.05 90.5895 445.384 90.8854C445.719 91.1813 445.934 91.5894 445.99 92.0331C445.993 92.0636 446.007 92.0918 446.03 92.1121C446.053 92.1324 446.083 92.1433 446.114 92.1426C446.897 92.1264 447.659 92.392 448.263 92.8912C448.868 93.3903 449.273 94.09 449.407 94.8632C450.348 100.355 452.236 112.818 451.303 119.748C450.978 122.16 451.126 125.788 451.249 127.806C451.261 128.001 451.235 128.197 451.171 128.381C451.108 128.566 451.009 128.737 450.88 128.883C451.154 128.963 451.388 129.146 451.53 129.394C451.673 129.642 451.714 129.937 451.644 130.214C451.572 130.499 451.391 130.744 451.139 130.894C450.887 131.045 450.586 131.089 450.302 131.017L429.132 125.669C428.848 125.598 428.604 125.416 428.453 125.164C428.303 124.912 428.259 124.61 428.33 124.325Z" fill="#C39E72"/>
</g>
</g>
<defs>
<clipPath id="clip0_7494_84985">
<rect width="291" height="225" fill="white" transform="translate(169 17)"/>
</clipPath>
</defs>
</svg>
