<svg width="14" height="13" viewBox="0 0 14 13" fill="none" xmlns="http://www.w3.org/2000/svg">
<path d="M3.33311 12.6666C3.14422 12.6666 2.98588 12.6027 2.85811 12.475C2.73033 12.3472 2.66644 12.1888 2.66644 12V9.33329H0.716439C0.460883 9.33329 0.271994 9.22218 0.149772 8.99996C0.0275499 8.77774 0.0275499 8.55552 0.149772 8.33329L1.33311 6.23329V4.66663H0.999772C0.810883 4.66663 0.65255 4.60274 0.524772 4.47496C0.396994 4.34718 0.333105 4.18885 0.333105 3.99996C0.333105 3.81107 0.396994 3.65274 0.524772 3.52496C0.65255 3.39718 0.810883 3.33329 0.999772 3.33329H5.66644C5.85533 3.33329 6.01366 3.39718 6.14144 3.52496C6.26922 3.65274 6.33311 3.81107 6.33311 3.99996C6.33311 4.18885 6.26922 4.34718 6.14144 4.47496C6.01366 4.60274 5.85533 4.66663 5.66644 4.66663H5.33311V6.23329L6.51644 8.33329C6.63866 8.55552 6.63866 8.77774 6.51644 8.99996C6.39422 9.22218 6.20533 9.33329 5.94977 9.33329H3.99977V12C3.99977 12.1888 3.93588 12.3472 3.80811 12.475C3.68033 12.6027 3.52199 12.6666 3.33311 12.6666ZM12.3331 11.3333H7.66644C7.47755 11.3333 7.31922 11.2694 7.19144 11.1416C7.06366 11.0138 6.99977 10.8555 6.99977 10.6666C6.99977 10.4777 7.06366 10.3194 7.19144 10.1916C7.31922 10.0638 7.47755 9.99996 7.66644 9.99996H12.3331V1.99996H0.999772C0.810883 1.99996 0.65255 1.93607 0.524772 1.80829C0.396994 1.68051 0.333105 1.52218 0.333105 1.33329C0.333105 1.1444 0.396994 0.98607 0.524772 0.858293C0.65255 0.730515 0.810883 0.666626 0.999772 0.666626H12.3331C12.6998 0.666626 13.0137 0.797182 13.2748 1.05829C13.5359 1.3194 13.6664 1.63329 13.6664 1.99996V9.99996C13.6664 10.3666 13.5359 10.6805 13.2748 10.9416C13.0137 11.2027 12.6998 11.3333 12.3331 11.3333ZM1.86644 7.99996H4.79977L3.99977 6.59996V4.66663H2.66644V6.59996L1.86644 7.99996Z" fill="#0963CE"/>
</svg>
