<svg width="16" height="16" viewBox="0 0 16 16" fill="none" xmlns="http://www.w3.org/2000/svg">
<path d="M2.66683 14C2.30016 14 1.98627 13.8694 1.72516 13.6083C1.46405 13.3472 1.3335 13.0333 1.3335 12.6666V2.39997C1.3335 2.32219 1.36683 2.26941 1.4335 2.24163C1.50016 2.21386 1.56127 2.22775 1.61683 2.2833L2.45016 3.11663L3.31683 2.2333C3.3835 2.16663 3.46127 2.1333 3.55016 2.1333C3.63905 2.1333 3.71683 2.16663 3.7835 2.2333L4.66683 3.11663L5.55016 2.2333C5.61683 2.16663 5.69461 2.1333 5.7835 2.1333C5.87239 2.1333 5.95016 2.16663 6.01683 2.2333L6.8835 3.11663L7.76683 2.2333C7.8335 2.16663 7.91127 2.1333 8.00016 2.1333C8.08905 2.1333 8.16683 2.16663 8.2335 2.2333L9.11683 3.11663L9.9835 2.2333C10.0502 2.16663 10.1279 2.1333 10.2168 2.1333C10.3057 2.1333 10.3835 2.16663 10.4502 2.2333L11.3335 3.11663L12.2168 2.2333C12.2835 2.16663 12.3613 2.1333 12.4502 2.1333C12.5391 2.1333 12.6168 2.16663 12.6835 2.2333L13.5502 3.11663L14.3835 2.2833C14.4391 2.22775 14.5002 2.21386 14.5668 2.24163C14.6335 2.26941 14.6668 2.32219 14.6668 2.39997V12.6666C14.6668 13.0333 14.5363 13.3472 14.2752 13.6083C14.0141 13.8694 13.7002 14 13.3335 14H2.66683ZM2.66683 12.6666H7.3335V8.66663H2.66683V12.6666ZM8.66683 12.6666H13.3335V11.3333H8.66683V12.6666ZM8.66683 9.99997H13.3335V8.66663H8.66683V9.99997ZM2.66683 7.3333H13.3335V5.3333H2.66683V7.3333Z" fill="#5929AD"/>
</svg>
