<svg width="14" height="12" viewBox="0 0 14 12" fill="none" xmlns="http://www.w3.org/2000/svg">
<path d="M1.66683 12C1.30016 12 0.986274 11.8694 0.725163 11.6083C0.464052 11.3472 0.333496 11.0333 0.333496 10.6667V1.33333C0.333496 0.966667 0.464052 0.652778 0.725163 0.391667C0.986274 0.130556 1.30016 0 1.66683 0H12.3335C12.7002 0 13.0141 0.130556 13.2752 0.391667C13.5363 0.652778 13.6668 0.966667 13.6668 1.33333V10.6667C13.6668 11.0333 13.5363 11.3472 13.2752 11.6083C13.0141 11.8694 12.7002 12 12.3335 12H1.66683ZM1.66683 10.6667H12.3335V1.33333H1.66683V10.6667ZM3.66683 9.33333H10.3335C10.5224 9.33333 10.6807 9.26944 10.8085 9.14167C10.9363 9.01389 11.0002 8.85556 11.0002 8.66667C11.0002 8.47778 10.9363 8.31944 10.8085 8.19167C10.6807 8.06389 10.5224 8 10.3335 8H3.66683C3.47794 8 3.31961 8.06389 3.19183 8.19167C3.06405 8.31944 3.00016 8.47778 3.00016 8.66667C3.00016 8.85556 3.06405 9.01389 3.19183 9.14167C3.31961 9.26944 3.47794 9.33333 3.66683 9.33333ZM3.66683 6.66667H5.00016C5.18905 6.66667 5.34739 6.60278 5.47516 6.475C5.60294 6.34722 5.66683 6.18889 5.66683 6V3.33333C5.66683 3.14444 5.60294 2.98611 5.47516 2.85833C5.34739 2.73056 5.18905 2.66667 5.00016 2.66667H3.66683C3.47794 2.66667 3.31961 2.73056 3.19183 2.85833C3.06405 2.98611 3.00016 3.14444 3.00016 3.33333V6C3.00016 6.18889 3.06405 6.34722 3.19183 6.475C3.31961 6.60278 3.47794 6.66667 3.66683 6.66667ZM7.66683 6.66667H10.3335C10.5224 6.66667 10.6807 6.60278 10.8085 6.475C10.9363 6.34722 11.0002 6.18889 11.0002 6C11.0002 5.81111 10.9363 5.65278 10.8085 5.525C10.6807 5.39722 10.5224 5.33333 10.3335 5.33333H7.66683C7.47794 5.33333 7.31961 5.39722 7.19183 5.525C7.06405 5.65278 7.00016 5.81111 7.00016 6C7.00016 6.18889 7.06405 6.34722 7.19183 6.475C7.31961 6.60278 7.47794 6.66667 7.66683 6.66667ZM7.66683 4H10.3335C10.5224 4 10.6807 3.93611 10.8085 3.80833C10.9363 3.68056 11.0002 3.52222 11.0002 3.33333C11.0002 3.14444 10.9363 2.98611 10.8085 2.85833C10.6807 2.73056 10.5224 2.66667 10.3335 2.66667H7.66683C7.47794 2.66667 7.31961 2.73056 7.19183 2.85833C7.06405 2.98611 7.00016 3.14444 7.00016 3.33333C7.00016 3.52222 7.06405 3.68056 7.19183 3.80833C7.31961 3.93611 7.47794 4 7.66683 4Z" fill="#D61B0A"/>
</svg>
