<svg width="12" height="14" viewBox="0 0 12 14" fill="none" xmlns="http://www.w3.org/2000/svg">
<path d="M3.99984 7.00004C3.81095 7.00004 3.65261 6.93615 3.52484 6.80837C3.39706 6.6806 3.33317 6.52226 3.33317 6.33337C3.33317 6.14449 3.39706 5.98615 3.52484 5.85837C3.65261 5.7306 3.81095 5.66671 3.99984 5.66671H7.99984C8.18873 5.66671 8.34706 5.7306 8.47484 5.85837C8.60261 5.98615 8.6665 6.14449 8.6665 6.33337C8.6665 6.52226 8.60261 6.6806 8.47484 6.80837C8.34706 6.93615 8.18873 7.00004 7.99984 7.00004H3.99984ZM3.99984 4.33337C3.81095 4.33337 3.65261 4.26949 3.52484 4.14171C3.39706 4.01393 3.33317 3.8556 3.33317 3.66671C3.33317 3.47782 3.39706 3.31949 3.52484 3.19171C3.65261 3.06393 3.81095 3.00004 3.99984 3.00004H7.99984C8.18873 3.00004 8.34706 3.06393 8.47484 3.19171C8.60261 3.31949 8.6665 3.47782 8.6665 3.66671C8.6665 3.8556 8.60261 4.01393 8.47484 4.14171C8.34706 4.26949 8.18873 4.33337 7.99984 4.33337H3.99984ZM1.99984 8.33337H6.99984C7.32206 8.33337 7.62206 8.40282 7.89984 8.54171C8.17761 8.6806 8.41095 8.87782 8.59984 9.13337L9.99984 10.9667V1.66671H1.99984V8.33337ZM1.99984 12.3334H9.3665L7.54984 9.95004C7.48317 9.86115 7.40261 9.79171 7.30817 9.74171C7.21373 9.69171 7.11095 9.66671 6.99984 9.66671H1.99984V12.3334ZM9.99984 13.6667H1.99984C1.63317 13.6667 1.31928 13.5362 1.05817 13.275C0.797059 13.0139 0.666504 12.7 0.666504 12.3334V1.66671C0.666504 1.30004 0.797059 0.986152 1.05817 0.725041C1.31928 0.46393 1.63317 0.333374 1.99984 0.333374H9.99984C10.3665 0.333374 10.6804 0.46393 10.9415 0.725041C11.2026 0.986152 11.3332 1.30004 11.3332 1.66671V12.3334C11.3332 12.7 11.2026 13.0139 10.9415 13.275C10.6804 13.5362 10.3665 13.6667 9.99984 13.6667Z" fill="#248F50"/>
</svg>
