<svg width="16" height="16" viewBox="0 0 16 16" fill="none" xmlns="http://www.w3.org/2000/svg">
<path d="M8.00016 14.6667C7.07794 14.6667 6.21127 14.4917 5.40016 14.1417C4.58905 13.7917 3.8835 13.3167 3.2835 12.7167C2.6835 12.1167 2.2085 11.4112 1.8585 10.6C1.5085 9.78893 1.3335 8.92226 1.3335 8.00004C1.3335 7.07782 1.5085 6.21115 1.8585 5.40004C2.2085 4.58893 2.6835 3.88337 3.2835 3.28337C3.8835 2.68337 4.58905 2.20837 5.40016 1.85837C6.21127 1.50837 7.07794 1.33337 8.00016 1.33337C8.92239 1.33337 9.78905 1.50837 10.6002 1.85837C11.4113 2.20837 12.1168 2.68337 12.7168 3.28337C13.3168 3.88337 13.7918 4.58893 14.1418 5.40004C14.4918 6.21115 14.6668 7.07782 14.6668 8.00004C14.6668 8.92226 14.4918 9.78893 14.1418 10.6C13.7918 11.4112 13.3168 12.1167 12.7168 12.7167C12.1168 13.3167 11.4113 13.7917 10.6002 14.1417C9.78905 14.4917 8.92239 14.6667 8.00016 14.6667ZM7.3335 13.3V12C6.96683 12 6.65294 11.8695 6.39183 11.6084C6.13072 11.3473 6.00016 11.0334 6.00016 10.6667V10L2.80016 6.80004C2.76683 7.00004 2.73627 7.20004 2.7085 7.40004C2.68072 7.60004 2.66683 7.80004 2.66683 8.00004C2.66683 9.34449 3.1085 10.5223 3.99183 11.5334C4.87516 12.5445 5.98905 13.1334 7.3335 13.3ZM11.9335 11.6C12.3891 11.1 12.7363 10.5417 12.9752 9.92504C13.2141 9.30837 13.3335 8.66671 13.3335 8.00004C13.3335 6.91115 13.0307 5.91671 12.4252 5.01671C11.8196 4.11671 11.0113 3.46671 10.0002 3.06671V3.33337C10.0002 3.70004 9.86961 4.01393 9.6085 4.27504C9.34739 4.53615 9.0335 4.66671 8.66683 4.66671H7.3335V6.00004C7.3335 6.18893 7.26961 6.34726 7.14183 6.47504C7.01405 6.60282 6.85572 6.66671 6.66683 6.66671H5.3335V8.00004H9.3335C9.52239 8.00004 9.68072 8.06393 9.8085 8.19171C9.93627 8.31949 10.0002 8.47782 10.0002 8.66671V10.6667H10.6668C10.9557 10.6667 11.2168 10.7528 11.4502 10.925C11.6835 11.0973 11.8446 11.3223 11.9335 11.6Z" fill="#273CA5"/>
</svg>
